<svg id="Layer_1" data-name="Layer 1" xmlns="http://www.w3.org/2000/svg" width="218" height="180" viewBox="0 0 218 180"><defs><style>.cls-1{fill:#7c690c;}.cls-2{fill:#b36018;}.cls-3{fill:#b2963d;}.cls-4{fill:#373434;}</style></defs><title>Artboard 1</title><path class="cls-1" d="M41.63,98c.51,2.25,1,4.44,1.5,6.6.37,1.49.51,1.54,2,1.47a3.83,3.83,0,0,1,.51,0,1.13,1.13,0,0,1,.31.13c-.09.12-.15.32-.26.34-.7.16-1.41.29-2.11.43l-3.6.69a3.81,3.81,0,0,1-.49.13c-.11,0-.22-.08-.32-.13.07-.12.12-.3.23-.36,1.23-.7,1.32-.77,1.08-2.15q-.79-4.68-1.67-9.35c-.44-2.36-.92-4.72-1.43-7.08-.34-1.6-.59-1.74-2.25-1.64-.17,0-.34-.12-.51-.19.12-.1.23-.25.37-.29a8.67,8.67,0,0,1,.87-.16c2.28-.44,4.55-.94,6.84-1.31a8.61,8.61,0,0,1,2.77,0c2.91.49,4.6,3,4.21,6.08a9.76,9.76,0,0,1-1.61,4.09c-.55.85-.54.88.22,1.53,1.8,1.54,3.59,3.09,5.42,4.59a8.33,8.33,0,0,0,3.77,2c1.2.22,1.7,0,2.23-1.1a8.53,8.53,0,0,0,.53-1.68c1.44-6.12,2.86-12.25,4.3-18.37A5.48,5.48,0,0,1,65,81.19a5.64,5.64,0,0,1,.78.92c2.86,5.31,5.7,10.64,8.56,16a16.64,16.64,0,0,0,1.3,2,2.64,2.64,0,0,0,2.4,1.15c.2,0,.41,0,.69,0-.1.19-.13.38-.2.39q-2.57.33-5.15.62c-.31,0-.61,0-.38-.48A1.07,1.07,0,0,0,73,101c-1-2-2.1-4-3.15-6.07a.76.76,0,0,0-.89-.49c-1.71.24-3.43.47-5.15.67a.79.79,0,0,0-.81.76c-.34,1.87-.76,3.72-1.1,5.59-.24,1.33-.11,1.47,1.27,1.68.13,0,.24.16.36.24a1.35,1.35,0,0,1-.39.26,8.19,8.19,0,0,1-.88.12c-1.76.22-3.53.37-5.27.7A5.68,5.68,0,0,1,51.8,103c-1.85-1.67-3.73-3.31-5.55-5a1.78,1.78,0,0,0-1.82-.51C43.58,97.68,42.7,97.82,41.63,98Zm6-5.51A23.23,23.23,0,0,0,47.18,90c-1-3.22-3.52-4.52-6.71-3.46-.87.29-.95.4-.78,1.27.44,2.28.88,4.55,1.34,6.82s.47,2.22,2.71,2a8.4,8.4,0,0,0,1.48-.31C46.76,95.84,47.54,94.55,47.64,92.52Zm17.57-6.82c-.11.1-.22.14-.23.21q-.74,3.72-1.47,7.43c-.1.5.18.57.58.52l4.87-.6Z"/><path class="cls-1" d="M180.67,107.76a1.77,1.77,0,0,1,.44-.17c1.44,0,1.65-.08,2.07-1.45.69-2.25,1.32-4.53,1.93-6.81q1.26-4.7,2.46-9.41c.36-1.42.22-1.63-1.09-2.26a2.8,2.8,0,0,1-.46-.21.49.49,0,0,1-.13-.3s.13-.11.2-.1a3.75,3.75,0,0,1,.61.11c3,.8,5.95,1.58,8.91,2.4a15.37,15.37,0,0,1,4.91,2.27,9.48,9.48,0,0,1,4,9.77,11.25,11.25,0,0,1-5.49,8.27,10.33,10.33,0,0,1-6.07,1.33,29.07,29.07,0,0,1-7.1-1.76c-1.28-.4-2.59-.75-3.88-1.12A2.62,2.62,0,0,1,180.67,107.76Zm21.16-8.29a9.2,9.2,0,0,0-5.51-8.22,29.61,29.61,0,0,0-4.65-1.59c-1.12-.33-1.27-.2-1.59,1q-1.42,5.18-2.79,10.38c-.46,1.75-.86,3.52-1.29,5.28a1.82,1.82,0,0,0,1.14,2.26,13,13,0,0,0,5.7,1.54,7.57,7.57,0,0,0,6.5-2.82A12.32,12.32,0,0,0,201.83,99.47Z"/><path class="cls-1" d="M13.49,92.38a2,2,0,0,1,.48-.29c2.32-.63,4.63-1.29,7-1.86a6,6,0,0,1,2.26-.09,4.31,4.31,0,0,1,3.6,5.42,24.43,24.43,0,0,1-1.1,3c.72.2,1.48.37,2.21.63a5.69,5.69,0,0,1,4.06,4.6,6,6,0,0,1-2.4,5.91A9.44,9.44,0,0,1,26,111.33c-1.83.49-3.67.95-5.51,1.42a3.66,3.66,0,0,1-.61.14c-.09,0-.19-.1-.29-.15.06-.1.09-.23.18-.29.33-.24.9-.41,1-.7a4.05,4.05,0,0,0,0-1.87c-.6-2.46-1.27-4.9-1.94-7.34-.74-2.68-1.51-5.36-2.26-8-.06-.2-.11-.41-.18-.6-.46-1.33-.65-1.45-2-1.35-.27,0-.54,0-.81,0Zm10.19,7.74c-.52.12-1.42.33-2.33.52-.43.09-.53.26-.4.7.38,1.25.7,2.52,1.06,3.78s.75,2.59,1.13,3.89a1.59,1.59,0,0,0,1.52,1.31,5.74,5.74,0,0,0,3.82-1.08,3.5,3.5,0,0,0,1.29-3.83A7.54,7.54,0,0,0,28,102,5.59,5.59,0,0,0,23.68,100.12ZM25,96.44A5.71,5.71,0,0,0,24,93a3.56,3.56,0,0,0-4.62-1.44c-.9.35-1,.44-.7,1.4.44,1.62.92,3.23,1.37,4.85.61,2.18.6,2.18,2.77,1.52A2.66,2.66,0,0,0,25,96.44Z"/><path class="cls-1" d="M148,80.9c.56,0,1.11.08,1.67.14,3.23.37,6.46.75,9.69,1.1.41,0,.53.17.45.53-.19.86-.38,1.73-.6,2.59,0,.18-.23.31-.35.47a1.77,1.77,0,0,1-.23-.5c-.14-1.31-.25-1.55-1.48-1.84s-2.65-.49-4-.68c-.13,0-.42.26-.44.42-.31,2.35-.57,4.7-.88,7-.08.58.17.79.65.84,1.39.15,2.77.32,4.16.39a7.06,7.06,0,0,0,1.67-.35l-.87,4h-.27c0-.29-.09-.58-.1-.87A1.29,1.29,0,0,0,156,92.81c-1.32-.27-2.65-.5-4-.7-.14,0-.43.25-.47.42-.14.7-.2,1.42-.29,2.13-.21,1.68-.48,3.35-.61,5s.27,2,1.83,2.3a22.55,22.55,0,0,0,2.64.31c1.55.07,2-.26,2.61-1.67l.35-.8c.44.85,0,1.46-.09,2.06-.47,2-.58,2.08-2.67,1.8l-8.91-1.22a1.08,1.08,0,0,1-.37-.07c-.1-.05-.22-.18-.21-.27s.15-.18.25-.23a.44.44,0,0,1,.25,0c.94.13,1.3-.46,1.47-1.22.21-1,.41-2,.54-3q.87-7,1.69-14c.19-1.6,0-1.9-1.59-2.31-.16,0-.31-.1-.46-.15Z"/><path class="cls-1" d="M115.27,100.3a1.74,1.74,0,0,1,.44-.29c1.22-.29,1.35-.37,1.47-1.63q.21-2.27.29-4.55c.14-4,.24-8,.36-12,0-.21,0-.42,0-.63,0-1.2-.27-1.48-1.41-1.74-.25-.06-.5-.06-.75-.11,0,0-.1-.13-.1-.2s.08-.18.13-.18c.38,0,.76,0,1.14,0,3,.1,5.91.22,8.87.31a18.69,18.69,0,0,0,1.89-.08c.3,0,.53,0,.48.38-.16,1.12-.35,2.23-.52,3.34l-.25,0a6.85,6.85,0,0,1-.22-.7c-.21-1-.53-1.45-1.54-1.57-1.51-.17-3-.21-4.55-.3-.35,0-.55.11-.56.5q-.11,3.61-.25,7.22c0,.45.21.57.62.57,1.48,0,3,.1,4.44,0a7.43,7.43,0,0,0,1.81-.56c-.16,1.29-.31,2.62-.49,3.95,0,.08-.16.13-.24.2-.07-.09-.18-.17-.21-.28a7.56,7.56,0,0,0-.24-1.1,1.46,1.46,0,0,0-1.31-.87c-1.26-.1-2.53-.14-3.79-.23-.52,0-.64.21-.65.67,0,2.49-.15,5-.15,7.48,0,1.93.1,2,2,2.33.16,0,.29.21.43.32a1.28,1.28,0,0,1-.43.16q-3.17-.08-6.33-.2C115.56,100.5,115.45,100.4,115.27,100.3Z"/><path class="cls-1" d="M90.36,83.29c-.12-.35-.26-.68-.35-1a2.35,2.35,0,0,0-1.7-1.72,5.21,5.21,0,0,0-3.24,0,3.15,3.15,0,0,0-1.47,5.05,22.94,22.94,0,0,0,3.23,2.81c.88.72,1.86,1.32,2.72,2.07a6.75,6.75,0,0,1,2.51,4.4,5.8,5.8,0,0,1-3.17,6.08,9.12,9.12,0,0,1-6.55.47c-.88-.25-1-.42-1-1.36s-.09-1.86-.08-2.78c0-.19.21-.38.32-.57a1.79,1.79,0,0,1,.24.51,3.37,3.37,0,0,0,2.91,3.22c1.78.3,3.49.11,4.67-1.52A4.07,4.07,0,0,0,89,93.95a18.92,18.92,0,0,0-2.45-2.18c-1-.82-2.12-1.54-3.11-2.4A6.59,6.59,0,0,1,81,85a4.94,4.94,0,0,1,3.21-5.31,11.35,11.35,0,0,1,6-.26c.15,0,.39.24.39.37,0,1.16,0,2.33,0,3.5Z"/><path class="cls-1" d="M108.06,82.86a10.5,10.5,0,0,1-.29-1,2.21,2.21,0,0,0-1.21-1.69,4.7,4.7,0,0,0-4.39-.1,3.23,3.23,0,0,0-.88,4.91,20.33,20.33,0,0,0,2.57,2.43c1,.83,2,1.55,2.93,2.42a6.49,6.49,0,0,1,2.3,6.11,5.61,5.61,0,0,1-4.11,4.68,9,9,0,0,1-5.73-.1c-1-.36-1.12-.47-1.11-1.56s.08-1.94.15-2.91c0-.12.17-.23.27-.35.09.13.23.24.26.38s0,.51.05.76a3.25,3.25,0,0,0,1.68,2.4,5,5,0,0,0,3.94.35,3.88,3.88,0,0,0,1.91-5.93,10.44,10.44,0,0,0-1.8-1.94c-1.35-1.22-2.8-2.32-4.11-3.58a6,6,0,0,1-1.89-4.55,4.89,4.89,0,0,1,3.4-4.7,10,10,0,0,1,5.13-.2,6.65,6.65,0,0,1,1,.19.59.59,0,0,1,.35.41c0,1.05,0,2.11-.08,3.16C108.38,82.55,108.24,82.64,108.06,82.86Z"/><path class="cls-1" d="M177.17,103.31a7.92,7.92,0,0,1-1.11,3.34c-.29.5-.9.35-1.4.25l-6.09-1.21c-1.24-.24-2.49-.46-3.74-.69a4.12,4.12,0,0,1-.74-.13c-.16-.06-.27-.24-.4-.37.14-.06.29-.18.42-.16,1,.16,1.46-.45,1.65-1.32.4-1.81.83-3.62,1.17-5.44.68-3.61,1.3-7.24,1.94-10.85a7.48,7.48,0,0,0,.13-.88c.06-1.07-.12-1.33-1.1-1.71-.24-.09-.49-.14-.72-.25-.08,0-.11-.19-.12-.3s.13-.12.2-.11c.54.07,1.08.15,1.62.25l4.24.77a5.85,5.85,0,0,1,.84.24s.08.14.07.21-.09.16-.14.17c-.21,0-.42,0-.63,0-1.15,0-1.45.2-1.72,1.39s-.48,2.4-.69,3.61q-1,5.8-2,11.61a6.46,6.46,0,0,0-.09,1c0,1.2.31,1.7,1.48,2s2.23.48,3.36.66a2.48,2.48,0,0,0,2.89-1.52,5.46,5.46,0,0,1,.44-.68Z"/><path class="cls-1" d="M132.63,101.15c.15-.22.17-.27.2-.28,1.65-.34,1.7-.33,1.92-2.07.28-2.3.5-4.62.68-6.93.24-3,.43-6.07.64-9.1a8.22,8.22,0,0,0,0-.89c0-1.06-.22-1.29-1.24-1.61a4,4,0,0,1-.48-.16.24.24,0,0,1-.11-.19.25.25,0,0,1,.14-.19,1.66,1.66,0,0,1,.49,0l5.55.47c.1,0,.19.12.45.29a5.41,5.41,0,0,1-.63.19c-1.16.16-1.44.4-1.55,1.6q-.41,4.42-.74,8.84c-.2,2.65-.34,5.31-.51,8a4.88,4.88,0,0,0,0,.76,1.27,1.27,0,0,0,1.12,1.33c.2.06.43,0,.62.12a5.6,5.6,0,0,1,.67.36,6.47,6.47,0,0,1-.8.14,7.44,7.44,0,0,1-.89,0c-1.52-.11-3-.2-4.55-.32A8.23,8.23,0,0,1,132.63,101.15Z"/><path class="cls-2" d="M152.73,121.75c.83.11,1.08-.44,1.29-1.09.76-2.41,1.53-4.82,2.3-7.23.21-.64.4-1.29.63-1.92,0-.14.2-.24.31-.36.14.13.36.23.41.39.4,1.24.77,2.5,1.15,3.75s.82,2.74,1.25,4.11a7,7,0,0,0,.36.78l3.29-4.79c.57-.84,1.14-1.68,1.74-2.5.12-.17.38-.24.58-.36a2.23,2.23,0,0,1,.16.58c0,2.37,0,4.74,0,7.11,0,.8,0,1.61,0,2.41a1.17,1.17,0,0,0,.83,1.27v.38c-.78-.14-1.57-.3-2.35-.42-.48-.08-.67-.11-.5-.77a11.58,11.58,0,0,0,.13-2.77c0-1.17,0-2.34,0-3.8l-2.09,2.94c-.75,1.07-1.48,2.15-2.25,3.21-.41.56-.58.54-.79-.12-.61-1.88-1.19-3.78-1.78-5.66l-.45-1.49c-.39,1.29-.7,2.28-1,3.27-.23.77-.4,1.55-.68,2.3s-.09,1,.63,1.16c.1,0,.19.14.25.4l-3.34-.53A2.42,2.42,0,0,0,152.73,121.75Z"/><path class="cls-2" d="M64.18,118.85l2.14-6.44c.24-.72.47-1.44.73-2.15.06-.16.26-.27.39-.41.1.13.26.24.3.39.33,1.09.63,2.19.94,3.28.48,1.7,1,3.4,1.41,5.12.27,1.13.66,2,2,2.13-.89.1-1.79.18-2.68.29-.58.07-.75,0-.88-.74-.39-2-1-3.91-1.59-6.07a7,7,0,0,0-.44.84c-.6,1.76-1.18,3.52-1.77,5.28-.16.47-.36.93-.61,1.57-1.81-2.06-3-4.4-4.7-6.42q0,2.88,0,5.75c0,.43.23.6.63.62a.69.69,0,0,1,.58.32l-3.35.44a1.87,1.87,0,0,0,.93-1.9c0-3,.13-6,.21-9a3.34,3.34,0,0,1,0-.51c.06-.34.27-.44.52-.19a5.89,5.89,0,0,1,.68.91l4.08,6.26Z"/><path class="cls-2" d="M123.74,110.84c-.06-.23-.11-.46-.17-.69a1.81,1.81,0,0,0-2.45-1.31,1.36,1.36,0,0,0-.94,1.23,2.47,2.47,0,0,0,.53,1.91c1.21,1.46,2.47,2.88,3.72,4.31.32.37.57.25.73-.17.09-.23.22-.46.3-.7.32-1,.16-1.36-1-1.93a3.06,3.06,0,0,1,2.31.13c.16.05.27.63.19.88a13.66,13.66,0,0,1-.94,2.06c-.42.76-.49.8.23,1.31s1.81,1.12,2.86,1.76c-1.57.1-3,.16-4.29-.75a1,1,0,0,0-1.32-.06,5.17,5.17,0,0,1-5,.26,3.15,3.15,0,0,1-1.15-5,5.84,5.84,0,0,0,1.09-3.26,2.55,2.55,0,0,1,1.63-2.49,4.9,4.9,0,0,1,3.59-.11c.42.13.66.35.58.82s-.19,1.19-.28,1.78Zm-.38,7c-1.2-1.41-2.4-2.81-3.61-4.2a.51.51,0,0,0-.49,0,2.85,2.85,0,0,0-.66,2.8,2.58,2.58,0,0,0,2.12,2.07A3,3,0,0,0,123.35,117.85Z"/><path class="cls-2" d="M40.09,125.9a5.64,5.64,0,0,1-5.62-5.11,5.56,5.56,0,0,1,3.78-6.12,13.72,13.72,0,0,1,2.59-.48c3-.23,5.31,1.77,5.64,5.07C46.85,123.06,44.1,125.91,40.09,125.9Zm4.47-4.1c-.09-2.63-.62-4.38-2.13-5.76s-5.28-1.28-6,1.72a6.93,6.93,0,0,0,2.5,6.5,3.93,3.93,0,0,0,3.27.5A3,3,0,0,0,44.55,121.8Z"/><path class="cls-2" d="M31.61,119.49a2.37,2.37,0,0,0-3-1.76,9,9,0,0,0-2.51.76,2.7,2.7,0,0,0-1.51,2.21c-.28,2.39.28,4.48,2.35,5.91a4.49,4.49,0,0,0,5,.12c.71-.39.86-.69,1.22-2.08.89,1.33.6,2.5-.8,3a8.63,8.63,0,0,1-6.16.5,5.47,5.47,0,0,1-3.75-5.09A5.16,5.16,0,0,1,25,118a12.08,12.08,0,0,1,5.82-1.51c.18,0,.5.09.53.2.21.87.37,1.76.55,2.64Z"/><path class="cls-2" d="M110.23,116.37c-.12.69-.19,1.39-.37,2.06a.93.93,0,0,1-.59.56c-2.5.49-5,.59-7.18-1a5.46,5.46,0,0,1-2.14-5.85,5.2,5.2,0,0,1,3.94-4.22,12.12,12.12,0,0,1,5.66,0c.31.06.52.19.51.59,0,.79,0,1.59,0,2.39l-.26.05a1.56,1.56,0,0,1-.23-.45,2.07,2.07,0,0,0-1.49-1.72,5.71,5.71,0,0,0-3.37-.17,3.3,3.3,0,0,0-2.44,2.52,6.29,6.29,0,0,0,.21,4.23,4.68,4.68,0,0,0,5.63,2.77,3.47,3.47,0,0,0,1.38-1,3,3,0,0,0,.45-.87Z"/><path class="cls-2" d="M73.43,120.4c1.18,0,1.16-.76,1.11-1.5-.19-2.53-.38-5.05-.61-7.57-.12-1.29-.2-1.33-1.78-1.64.59-.13.89-.22,1.2-.25,1.85-.19,3.69-.35,5.54-.54.35,0,.59,0,.59.41a9.22,9.22,0,0,1-.12,1.78c-.4-.48-.55-1.17-1.35-1.06-.58.08-1.18,0-1.77.1a.54.54,0,0,0-.35.4c0,1,.14,1.94.22,2.9a.51.51,0,0,0,.67.53l2.74-.38v2c-.35-.28-.67-.72-1-.78a3.3,3.3,0,0,0-2,.12c-.63.36-.06,1.14-.08,1.74a7.89,7.89,0,0,0,.11,1.64,1.54,1.54,0,0,0,.49,1c.75.48,1.56,0,2.34-.06.52-.07.73-.51.82-1a2.17,2.17,0,0,1,.24-.48c.09.18.14.25.14.31,0,2.14.27,2.16-1.93,2.23-1.52,0-3,.26-4.54.4a2.69,2.69,0,0,1-.49,0Z"/><path class="cls-2" d="M141.56,120.33c.72-.22,1-.85,1.33-1.44,1.42-2.63,2.83-5.26,4.27-7.88a9.74,9.74,0,0,1,.81-1.09,7.55,7.55,0,0,1,.63,1.28c.8,2.87,1.56,5.76,2.36,8.63.2.73.43,1.47,1.25,1.78V122c-.88-.09-1.77-.16-2.64-.27-.34,0-.49-.05-.47-.64a11,11,0,0,0-.67-3.06.56.56,0,0,0-.35-.3,5.6,5.6,0,0,0-.75-.12c-2.33-.38-2.33-.38-3.32,1.69-.48,1-.48,1,.72,1.83l-2.94-.35Zm3.91-3.87,2.24.28c.33,0,.47-.13.39-.45-.25-1-.52-2.05-.84-3.32Z"/><path class="cls-2" d="M89.71,119.45a9.93,9.93,0,0,1-1.2.17c-1.18,0-2.35,0-3.42,0,.9-.6.93-.6.88-2-.09-2.37-.21-4.73-.34-7.09-.05-.92-.14-1-1.07-.94l-.76,0a2,2,0,0,0-2.17,1.45c-.35-.92,0-1.55,0-2.18,0-.09.31-.25.48-.26,2.28-.1,4.56-.17,6.83-.25l.76,0,1.57-.06c0,.58.09,1.17.13,1.75a2,2,0,0,1-.11.41c-.73-1.62-2.1-1-3.26-1.1-.45,0-.57.24-.55.64.17,2.61.31,5.23.51,7.84.09,1.16.16,1.15,1.29,1.39C89.45,119.22,89.54,119.33,89.71,119.45Z"/><path class="cls-2" d="M189.89,129.58l-4.32-1.15c.94-.08,1.24-.71,1.44-1.44a15.46,15.46,0,0,0,.5-2,5.62,5.62,0,0,0,0-2,37.46,37.46,0,0,0-1.29-4.23,12.31,12.31,0,0,0-1.19-2,1.57,1.57,0,0,1,.48,0c.9.22,1.79.46,2.69.71.27.07.49.16.14.47a.76.76,0,0,0-.24.6c.38,1.55.8,3.09,1.25,4.79,1.11-1.17,2.13-2.21,3.1-3.28.18-.19.35-.59.26-.78-.25-.53-.16-.66.39-.51.89.25,1.77.5,2.69.84a4.22,4.22,0,0,0-2.85,1.52c-.9.83-1.78,1.7-2.59,2.61a4.56,4.56,0,0,0-.79,1.42A15.3,15.3,0,0,0,189,127C188.65,128.61,188.65,128.62,189.89,129.58Z"/><path class="cls-2" d="M138,120.42l-3.9-.32c-.07,0-.13-.09-.32-.24a1.15,1.15,0,0,0,1.33-1.26c0-.93.19-1.85.27-2.77.15-1.64.3-3.28.42-4.92.09-1.34.07-1.34-1.41-1.86a4.25,4.25,0,0,1,.82-.14c2.06.16,4.12.35,6.18.51.33,0,.48.13.42.44-.11.57-.23,1.13-.42,2-.33-.85-.37-1.6-1.26-1.58-.63,0-1.26-.16-1.89-.17-.14,0-.38.32-.41.52-.12,1-.2,1.93-.26,2.9,0,.13.21.38.33.38,1,0,2.05.52,3.21-.08l-.43,2.4a2.4,2.4,0,0,0-2.82-1.38.58.58,0,0,0-.38.38q-.17,2-.28,4c0,.53.35.72.82.78Z"/><path class="cls-2" d="M49.65,120.95c.15.34.28.69.46,1a1.79,1.79,0,0,0,1.4,1,2.14,2.14,0,0,0,2.27-1,1.92,1.92,0,0,0-.76-2.34c-.47-.35-1-.59-1.51-.92a12.42,12.42,0,0,1-2.1-1.6,2.79,2.79,0,0,1,.87-4.56,5.79,5.79,0,0,1,3-.52c.39,0,.63.12.66.57s.14,1.19.22,1.79l-.24.07-.41-.7a1.62,1.62,0,0,0-1.48-.81,1.78,1.78,0,0,0-1.85,1.05,1.64,1.64,0,0,0,.82,1.83c.73.5,1.53.89,2.29,1.35a4.05,4.05,0,0,1,2.17,2.81,3.09,3.09,0,0,1-1.54,3.32,5.81,5.81,0,0,1-3.57.55.88.88,0,0,1-.64-.49c-.16-.76-.21-1.54-.3-2.31Z"/><path class="cls-2" d="M183.47,125.53,183,127a.81.81,0,0,1-1.08.58c-.86-.21-1.71-.45-2.57-.66-1.22-.3-2.45-.58-3.75-.95,1.31-.17,1.43-1.16,1.64-2.12.49-2.22,1-4.43,1.5-6.65.27-1.22.25-1.22-.71-2.08l4.5,1c-.22.17-.28.26-.34.26-1.15-.11-1.16-.09-1.48,1.2-.52,2.12-1,4.26-1.48,6.4-.36,1.64-.09,2,1.51,2.36C182.06,126.64,182.19,126.6,183.47,125.53Z"/><path class="cls-2" d="M93.35,108.13h4.2c-.34.22-.79.35-.94.64A2.67,2.67,0,0,0,96.5,110c.07,2.4.14,4.8.25,7.2.07,1.48.1,1.48,1.48,1.74a13.11,13.11,0,0,1-4.63.27c.34-.19.74-.28.89-.53a2.18,2.18,0,0,0,.18-1.09q-.05-3.73-.14-7.46C94.5,108.88,94.41,108.77,93.35,108.13Z"/><path class="cls-2" d="M173,125.53l-4.33-.84c.21-.17.3-.29.36-.28.72.15,1-.27,1.13-.86.22-1,.41-2,.61-3,.31-1.49.62-3,.92-4.46s.22-1.53-1.07-2.46l4.51.89v.21a2.31,2.31,0,0,1-.51.11.77.77,0,0,0-.86.73c-.52,2.77-1,5.55-1.6,8.32a.94.94,0,0,0,.83,1.28Z"/><path class="cls-1" d="M141.56,120.33l.24.41a1,1,0,0,1-.36,0,5,5,0,0,1-.6-.27Z"/><path class="cls-1" d="M166.95,124.27v-.38a.9.9,0,0,1,.37,0,1.55,1.55,0,0,1,.32.31,1.17,1.17,0,0,1-.33.13A1.28,1.28,0,0,1,166.95,124.27Z"/><path class="cls-1" d="M138,120.42v-.33l.47.23Z"/><path class="cls-1" d="M152.22,122v-.35l.52.14a2.42,2.42,0,0,1,0,.25Z"/><path class="cls-1" d="M173,125.53v-.33l.42.27Z"/><path class="cls-1" d="M133.15,145.67c-1,.47-2,1-3,1.39a3.74,3.74,0,0,1-1.48.14c-1.5-.07-1.92-.61-1.73-2.18l.09-.3-.29.08a15.17,15.17,0,0,1-4.62,2.83,8.37,8.37,0,0,1-5.59.12,3.27,3.27,0,0,1-2.3-3.15,6.93,6.93,0,0,1,1.23-4.06,13.91,13.91,0,0,1,3.44-3.69.85.85,0,0,0,.31-1.18c-1-2.49.32-4.5,3-4.68a5.41,5.41,0,0,1,4.3,1.47,1.79,1.79,0,0,0,1.57.48,12.42,12.42,0,0,1,3,.17,2.08,2.08,0,0,1,1.8,1.58,2.35,2.35,0,0,1-1,2.45,8.71,8.71,0,0,1-5.12,1.6,10.12,10.12,0,0,1-5.41-1,.64.64,0,0,0-.88.15,12.75,12.75,0,0,0-3.44,5.54c-.73,2.83.8,4.45,3.7,4a13.07,13.07,0,0,0,5.86-3.1,14.26,14.26,0,0,1,4.91-2.76,5.52,5.52,0,0,1,2-.17c.93.1,1.19.78.63,1.54a2.78,2.78,0,0,1-.94.82c-.86.44-1.76.8-2.65,1.17a4,4,0,0,1-.85.25.64.64,0,0,0-.58.81c.07.51.46.59.85.52a9.2,9.2,0,0,0,1.58-.4,13.21,13.21,0,0,0,1.36-.67Zm-11.91-8.5a9.36,9.36,0,0,0,4.12,1.14,7.9,7.9,0,0,0,3.84-.56,3.69,3.69,0,0,0,2-1.85,1.73,1.73,0,0,0-1.29-2.6,7.56,7.56,0,0,0-1.89,0c-.48,0-.71.21-.51.82a2.84,2.84,0,0,1,.08,2.15c-.25-.76-.46-1.41-.68-2.06-.13-.37-.32-.52-.75-.31A19.81,19.81,0,0,0,121.24,137.17Zm4.84-4a4.63,4.63,0,0,0-4.88-1.45,2.61,2.61,0,0,0-1.54,3.78c.23.45.44.5.86.24a20.37,20.37,0,0,1,5.41-2.38C126,133.35,126,133.25,126.08,133.18Zm3.46,11.59a5.51,5.51,0,0,0,2.57-1.41,4.49,4.49,0,0,0,.74-1c.18-.34,0-.6-.41-.52a1.47,1.47,0,0,0-.57.25A8.58,8.58,0,0,0,129.54,144.77Z"/><path class="cls-1" d="M102.64,143.4c2.65-3.06,5.23-6.18,8-9.16a44.52,44.52,0,0,1,4.81-4.32,11.82,11.82,0,0,1,2.57-1.31,1.15,1.15,0,0,1,1.38.32,1,1,0,0,1,0,1.3,16.31,16.31,0,0,1-1.84,2.56,50.65,50.65,0,0,1-7,5.82c-.55.4-1.11.76-1.67,1.14l-.2-.25,2.61-2.2a44,44,0,0,0,6.19-5.79,10.34,10.34,0,0,0,1.07-1.7.54.54,0,0,0-.77-.7,8.32,8.32,0,0,0-1.82,1.34c-2.55,2.88-5,5.81-7.54,8.73a4,4,0,0,0-.33.52l.3,0,.22.24a13.8,13.8,0,0,0-4.09,4.9,5,5,0,0,0-.31,1.26,5.07,5.07,0,0,0,1.24-.41c.67-.43,1.27-1,1.9-1.46a1.9,1.9,0,0,1,.89-.46,2.49,2.49,0,0,1-.38.53,24.84,24.84,0,0,1-2.68,2.09,5.57,5.57,0,0,1-2.25.72c-1,.11-1.48-.55-1.18-1.52.09-.28.26-.53.35-.81s0-.37-.05-.42a.52.52,0,0,0-.46,0,7.39,7.39,0,0,0-.68.55c-.63.5-1.24,1-1.9,1.47a5,5,0,0,1-1.25.59c-1.31.44-1.83.18-2.31-1.14-.44.25-.86.51-1.3.74a6.31,6.31,0,0,1-1,.43c-1.86.55-2.64-.15-2.33-2.05l.11-.28-.29.07-.63.41-.27-.26a19.73,19.73,0,0,1,5.08-3.21,7.61,7.61,0,0,1,1.71-.44,1.59,1.59,0,0,1,2,.86,2.33,2.33,0,0,1,2.67-.63c-.63.79-1.2,1.49-1.75,2.22-.44.57-.87,1.14-1.26,1.74a1.92,1.92,0,0,0-.15.66,2,2,0,0,0,.71-.08,9.08,9.08,0,0,0,1.26-.84c.47-.36.88-.8,1.36-1.14a6.2,6.2,0,0,1,1.12-.5l.06.48c.12-.07.35-.14.35-.21A1.23,1.23,0,0,0,102.64,143.4ZM93,146.57a8.5,8.5,0,0,0,1-.4,10.8,10.8,0,0,0,3.48-3.24,1.19,1.19,0,0,0,.19-1c-.29-.5-.73-.11-1.11,0a1,1,0,0,0-.32.19c-1.06,1-2.13,2-3.16,3.07a1.59,1.59,0,0,0-.39.78C92.72,146.15,92.9,146.35,93,146.57Z"/><path class="cls-1" d="M65.31,133.72c-1,.4-2,.76-2.91,1.2s-.82.57-.28,1.19a6.48,6.48,0,0,1,1.07,1.71,5.9,5.9,0,0,1-2.61,7.63,13.49,13.49,0,0,1-6.66,1.72c-1.9,0-3.8-.11-5.7-.15-.54,0-1.09.11-1.63.12-2.07,0-4.14.06-6.21,0-.52,0-1.35,0-1.37-.57s.79-.59,1.32-.65a30.21,30.21,0,0,1,7.2.31,3,3,0,0,0,2-.43,12.18,12.18,0,0,0,3.39-3.2,33.21,33.21,0,0,1,6.93-7c.58-.41.23-.57-.1-.79a11.45,11.45,0,0,0-5.39-1.64v-.36a11.38,11.38,0,0,1,6.09,1.72,1.09,1.09,0,0,0,1.15,0c1.2-.48,2.44-.84,3.66-1.25ZM49.54,146.44a11.21,11.21,0,0,0,5.25,0,9.41,9.41,0,0,0,6.51-5.16,5.56,5.56,0,0,0,.2-4.54c-.33-.85-.51-.88-1.05-.18-.93,1.2-1.82,2.43-2.71,3.66a16.49,16.49,0,0,1-5.81,5.16C51.23,145.74,50.48,146,49.54,146.44Z"/><path class="cls-1" d="M153.63,144.77c-.67.5-1.33,1-2,1.5a4.34,4.34,0,0,1-2.69.92c-.93,0-1.26-.5-1.1-1.4.07-.36.09-.72.13-1.08h0l.26-.28,0,0,.41-.28c.53-.21.59-.57.34-1l1.16-.94-.16-.26-.54,0c-.14,0-.28-.06-.65-.15.36-.15.51-.28.64-.26a2.36,2.36,0,0,0,2.21-1.14,34,34,0,0,1,2.61-2.75,2.4,2.4,0,0,1,1.8-.81,2.47,2.47,0,0,1,.57.16,2.28,2.28,0,0,1-.25.53c-1,1.16-2,2.3-3,3.45a4.25,4.25,0,0,0-.28.41l-.05.51c-.19.08-.45.11-.55.26q-1.1,1.62-2.13,3.28a1.88,1.88,0,0,0-.1.71,2.13,2.13,0,0,0,.8,0,4.51,4.51,0,0,0,1.27-.81,22,22,0,0,1,3.7-2.58,7.75,7.75,0,0,1,3.5-1.35,3.32,3.32,0,0,1,1.12,0,.82.82,0,0,1,.56,1.35,2.43,2.43,0,0,1-.86.9c-.93.49-1.9.88-2.86,1.3a3.91,3.91,0,0,1-.85.25.64.64,0,0,0-.57.82c.05.43.37.55.73.52a4.75,4.75,0,0,0,1.22-.23c.63-.24,1.22-.56,1.83-.85l.27.26c-1,.47-2,1-3,1.4a3.55,3.55,0,0,1-1.36.14c-1.58,0-2-.6-1.86-2.19l.1-.3Zm2.9-.32.19.23a4.84,4.84,0,0,0,3-2.11c.11-.17,0-.45,0-.68a1.21,1.21,0,0,0-1.22.44C157.84,143,157.19,143.74,156.54,144.45Z"/><path class="cls-1" d="M75.82,145.46a3.68,3.68,0,0,1-2.6,1.6c-.76,0-1-.22-.57-.87.55-.9,1.17-1.75,1.77-2.62a4.68,4.68,0,0,0,.76-1.41,4.71,4.71,0,0,0-.79.38c-1.32,1-2.62,2-3.94,2.94A7.78,7.78,0,0,1,66,147.2a4,4,0,0,1-1.48-.26,1.12,1.12,0,0,1-.67-.68,5.78,5.78,0,0,1,.06-1.83c.05-.28.37-.54.62-.74a10.63,10.63,0,0,1,4-2.18,5.79,5.79,0,0,1,2-.18.88.88,0,0,1,.64,1.5,2.59,2.59,0,0,1-.92.84c-.94.47-1.92.85-2.88,1.26a4.55,4.55,0,0,0-.95.32,1,1,0,0,0-.3.73.68.68,0,0,0,.48.47,3.51,3.51,0,0,0,1.48-.21,18.76,18.76,0,0,0,2.63-1.5c1.14-.78,2.19-1.7,3.33-2.47a9.08,9.08,0,0,1,2-1,.92.92,0,0,1,1.22.39,2,2,0,0,1-.1,1.18,5.63,5.63,0,0,1-.49,1h0l-.51.53,0,0-.41.5Q75.18,145.17,75.82,145.46Zm-9.21-1a3.92,3.92,0,0,0,3.15-1.9c.11-.16,0-.45,0-.68a1.65,1.65,0,0,0-.6,0,2.34,2.34,0,0,0-.72.5C67.83,143.09,67.22,143.78,66.6,144.47Z"/><path class="cls-1" d="M50.08,136.08c1.41-.36,2.44-.09,2.81.94a3.87,3.87,0,0,1,.08,2.09,4.42,4.42,0,0,1-1.69,2.47A8,8,0,0,1,44.57,143c-2.73-.57-3.67-2.91-2.24-5.34a8.78,8.78,0,0,1,4-3.35,15.63,15.63,0,0,1,6.23-1.5l.24.36a12.28,12.28,0,0,0-6.6,2.32,6.09,6.09,0,0,0-2.61,3.9,5,5,0,0,0-.07,1,2.22,2.22,0,0,0,2.08,2.3,6.68,6.68,0,0,0,6.5-3.73,1.9,1.9,0,0,0,0-2,1.67,1.67,0,0,0-2.07-.45Z"/><path class="cls-1" d="M84.52,144.05l2.69-2-1.51-.27c.41-.15.62-.31.82-.29a2.15,2.15,0,0,0,1.91-1c.88-1,1.81-2,2.77-2.93s1.16-.85,2.58-.65c-.41.46-.78.84-1.1,1.24-.86,1.07-1.69,2.16-2.54,3.23l-.19.44c-.18.09-.43.13-.53.28-.69,1-1.38,2-2,3.06a2.75,2.75,0,0,0-.18.93l.93-.12a1.45,1.45,0,0,0,.24-.08l.29.28a4.21,4.21,0,0,1-2.64,1c-1.06,0-1.45-.51-1.17-1.52a8.47,8.47,0,0,1,.57-1.24c.28-.3.28-.33,0-.43l-.72.35Z"/><path class="cls-1" d="M163.89,141.85c-.08-1.25.59-2,1.68-1.87a2.11,2.11,0,0,1,.56.26c-.09.16-.18.33-.29.49s-.24.2-.23.28.1.43.2.46c.45.11.92.11,1.37.22s.69.48.39,1-.85,1-1.24,1.6-1.16,1-1,1.9c.83,0,1.36-.56,2-1s1.24-1,2-1.6c0,.23,0,.37,0,.42a12,12,0,0,1-3.59,2.76,4.35,4.35,0,0,1-1.7.38c-1.11,0-1.55-.73-1-1.69a11.14,11.14,0,0,1,1.66-1.89,11.3,11.3,0,0,0,1.55-1.64h-1.91Z"/><path class="cls-1" d="M80.06,141.91a9.78,9.78,0,0,1,2-.61c1.14-.1,1.57.62,1,1.59-.44.71-1,1.33-1.5,2-.24.35-.58,1.06-.48,1.15.44.37.81-.14,1.21-.32a5.64,5.64,0,0,0,.54-.32l.26.25c-.6.38-1.18.81-1.81,1.14a2.3,2.3,0,0,1-1.2.3,2.36,2.36,0,0,1-1.34-.5c-.45-.43-.08-1,.2-1.38.58-.83,1.24-1.6,1.85-2.41a3.15,3.15,0,0,0,.29-.63h-.73Z"/><path class="cls-1" d="M144.19,142.11h-.6v-.45a8.5,8.5,0,0,1,1.83-.34c.8,0,1.12.6.75,1.32a18.08,18.08,0,0,1-1.28,1.87l-1.13,1.61c1.14.25,1.65-.6,2.37-.93l.25.25c-.81.51-1.61,1-2.43,1.51a1.72,1.72,0,0,1-.73.18c-.55,0-1.13.06-1.48-.46a1.22,1.22,0,0,1,.23-1.51c.71-.93,1.46-1.84,2.2-2.75Z"/><path class="cls-1" d="M137.9,142.3l-1.41.88-.27-.26c.65-.45,1.28-.93,2-1.33a2.52,2.52,0,0,1,1.07-.3c1-.07,1.43.56,1,1.42a20.36,20.36,0,0,1-1.3,2c-.36.22-.68.45-.08.77a11.23,11.23,0,0,1-1.23,1.06,3.44,3.44,0,0,1-1.25.49,2.55,2.55,0,0,1-.91-.19,3.13,3.13,0,0,1,.26-.8c.78-1.18,1.59-2.35,2.39-3.52l.06-.29Z"/><path class="cls-1" d="M80.06,141.91l.28.26-4,2.91-.26-.28.13-.4,0,0c.34,0,.61-.09.51-.53h0a5.13,5.13,0,0,0,.84-.34C78.39,143,79.22,142.46,80.06,141.91Z"/><path class="cls-1" d="M143.59,141.65v.45l-3.95,2.73-.22-.26A12.66,12.66,0,0,1,143.59,141.65Z"/><path class="cls-1" d="M136.22,142.92l.27.26a13.4,13.4,0,0,1-3.34,2.49l-.27-.26Z"/><path class="cls-1" d="M146.37,145.43l-.25-.25a9.15,9.15,0,0,1,2.77-2.05c.25.47.19.83-.34,1l-.41.28,0,0-.26.28h0C147.2,144.47,146.94,145.27,146.37,145.43Z"/><path class="cls-1" d="M65.31,133.72l0-.39c.71,0,1.42-.12,2.12-.09a1.7,1.7,0,0,1,1.51,1,16.12,16.12,0,0,0-1.86-.47A13.63,13.63,0,0,0,65.31,133.72Z"/><path class="cls-1" d="M163.89,141.85l.42.05-1.91,1.77-.43,0Z"/><path class="cls-1" d="M50.08,136.08v.4l-1.66,1.2C48.45,136.92,48.83,136.55,50.08,136.08Z"/><path class="cls-1" d="M160.09,145.67l-.27-.26,1.56-1.21v.37Z"/><path class="cls-1" d="M83.09,145.67l-.26-.25,1.53-1.26,0,.41Z"/><path class="cls-1" d="M153,141.83l.05-.51c.46,0,.92,0,1.38.06a2,2,0,0,1,.57.28,2.32,2.32,0,0,1-.63.21C153.89,141.89,153.43,141.85,153,141.83Z"/><path class="cls-1" d="M90,141.83l.19-.44c.61.09,1.29-.34,1.83.27l-1.89.19A.46.46,0,0,1,90,141.83Z"/><path class="cls-1" d="M88.68,146.18l-.29-.28,1.32-1,.27.26Z"/><path class="cls-1" d="M52.84,133.19l-.24-.36,1.79,0v.36Z"/><path class="cls-1" d="M138.86,145.47c-.6-.32-.28-.55.08-.77l.48-.12.22.26Z"/><path class="cls-1" d="M75.82,145.46q-.63-.29,0-.56l.28-.1.26.28Z"/><path class="cls-1" d="M162,143.64l.43,0a1.57,1.57,0,0,1-.33.35,1.67,1.67,0,0,1-.53.15s-.1-.18-.09-.18C161.62,143.86,161.8,143.75,162,143.64Z"/><path class="cls-1" d="M102.64,143.4a1.23,1.23,0,0,1,.17.46c0,.08-.23.14-.35.21l-.06-.48Z"/><path class="cls-1" d="M85.45,144c.28.1.29.13,0,.43Z"/><path class="cls-1" d="M108.88,139.75l-.25.21-.22-.24.27-.22Z"/><path class="cls-1" d="M144.19,142.11l0,.29Z"/><path class="cls-1" d="M161.38,144.57v-.37l.26.08Z"/><path class="cls-1" d="M84.38,144.57l0-.41a.54.54,0,0,1,.16-.11l.21.3Z"/><path class="cls-2" d="M108.11,18.56c0,.08,0,.16.08.24.19.53.63,1-.15,1.56a1.34,1.34,0,0,0-.45,1.18c0,.29-.34.65-.55,1a3.17,3.17,0,0,1,.41.26c.88.72.9.8-.06,1.32A34.16,34.16,0,0,0,98.59,31a33.36,33.36,0,0,0-6.92,10.39,6.42,6.42,0,0,0,.46,5.42,15.52,15.52,0,0,0,1.49,2.45c.71.94,1.31.84,1.94-.14a2.73,2.73,0,0,0-.11-3.43c-2.06-3-2-3-.4-6.12a31.4,31.4,0,0,1,5.46-7.77c.81-.83,1.68-1.6,2.52-2.4.21-.2.36-.46.57-.67s.31-.94.91-.4a7,7,0,0,0,.58-.77c.22-.38.39-.71.94-.47.16.07.46-.09.66-.21a6.06,6.06,0,0,0,.94-.62c.58-.48,1,.19,1.58.17.18,0,.17.4-.05.7a2,2,0,0,0,.47,2.4,1.31,1.31,0,0,0-.1.34,3.46,3.46,0,0,0,.05.5,4,4,0,0,1,.34-.25c.13-.08.27-.13.41-.19.17.66-.36,1.44.34,2l0,0a2.75,2.75,0,0,0-.07.86c.09.37.08.62-.3.81,0,0,.08.55.14.55.77.05.5.43.3.82a2.49,2.49,0,0,0-.31.77c0,.19.31.48-.21.42-.29,0-.54,0-.55-.45,0-.83-.1-1.66-.17-2.48a4.86,4.86,0,0,0-.15-.62,24.17,24.17,0,0,0-.83,4.33c0,.79,0,1.25-.78,1.49-.46.14-.59,0-.49-.48q.25-1.35.48-2.71a3.3,3.3,0,0,0,0-.5,1,1,0,0,0-.54-1.05c-.46-.23-.8,0-1.14.27A5.41,5.41,0,0,0,103.88,38q0,.38,0,.75a3.44,3.44,0,0,1-1.36,2.8,12,12,0,0,0-2,2.21,2.79,2.79,0,0,0-.65,2,1.29,1.29,0,0,0,1.2,1.33c.78.16,1,.33.84,1.08a21.76,21.76,0,0,1-1.56,5.65,4.09,4.09,0,0,1-.7.87c-.84.94-1.67,1.88-2.52,2.8a5.6,5.6,0,0,0-1.25,3.09,1.24,1.24,0,0,0,.81,1.37,11,11,0,0,1,1.42.74.75.75,0,0,1,.16.61,17.2,17.2,0,0,0-.34,2.21,1.54,1.54,0,0,0,.62,1.12c.49.32.93-.07,1.29-.46a5.64,5.64,0,0,0,1.3-2.94,7,7,0,0,0,.22-1.23c0-1.08.67-1.48,1.6-1.72,1.93-.49,3.85-1,5.91-1.58-.1.24-.12.52-.25.6-.51.29-.28.61-.22,1s.06.65.45.8c.13,0,.22.19.33.29-.12.08-.25.24-.37.24-.81,0-.87.46-.77,1.06s.16,1,.22,1.46a1,1,0,0,1-.08.48c-.2.45-.21.43.35.68.07,0,.08.2.12.3-.93.09-.89.8-.95,1.47a3.26,3.26,0,0,1-.23.84.66.66,0,0,1-1,.46,3.63,3.63,0,0,0-1.32-.05c-1.2.07-2.4.14-3.6.26-.83.08-1.65.24-2.48.37l-.54.07c-.2,0-.52,0-.58.08-.22.37-.42.52-.74.13s-.59-.27-.83,0a1.28,1.28,0,0,1-1.14.37c-1.25,0-2.51,0-3.76.05-.63,0-1.28.06-1.47-.8,0-.15-.33-.23-.5-.35a2.87,2.87,0,0,1-.39-.3A.25.25,0,0,1,89,68c.46-.66-.62-1.12-.22-1.79A7.15,7.15,0,0,0,89.23,65c.16-.43.43-.32.66-.1.4.38.79.79,1.26,1.27a1.39,1.39,0,0,1,.15-.48c.37-.44-.44-.8,0-1.33A2,2,0,0,0,91.44,63,6.37,6.37,0,0,0,91,61.59s-.27.07-.38,0a2.25,2.25,0,0,1-.77-.46c-.33-.37.91-.34.27-.81s.14-.8-.06-1.07c-.55-.71,0-1.2.25-1.77l-.13-.3-.19.32c-.42,0-.25-.27-.23-.51a2.86,2.86,0,0,0,0-1.19,3,3,0,0,1,.86-3.3c-.94.15-.94-.65-1.13-1a2.79,2.79,0,0,1,.09-1.75c.08-.29.22-.49,0-.76-.07-.09-.16-.26-.13-.33.81-1.56-.34-3.15.1-4.71-.46-1.43,0-2.83,0-4.25a4.25,4.25,0,0,0,0-1.93c-.6-1.32.28-2.62-.05-3.92,0-.19.15-.45.25-.67a4.94,4.94,0,0,0,.15-2.82c0-.26-.59-.39-.44-.91.1-.34.07-.59.51-.36,0,0,.24-.24.23-.36,0-.41-.18-.82-.21-1.23s.81-.94.31-1.6c0,0,.28-.24.42-.38a1.64,1.64,0,0,0,.27-2c-.29-.61-.82-1.24-.08-2,.24-.23,0-.44-.3-.47s-.89.29-1.14-.38c-.1-.28-.25-.45-.1-.78a1.27,1.27,0,0,0,.12-1c-.35-.6.56-.85.32-1.38a.78.78,0,0,1,.36-.21,4.91,4.91,0,0,1,1,0c.28,0,.56.24.82.2s.28-.42.48-.51a2.63,2.63,0,0,1,.85-.16c.71-.08.71-.08.9-.85,0-.16.07-.32.1-.48l.54-.07.39-.48-.47-.22,0,0c0-.25-.08-.58.3-.5.73.14,1.45.36,2.17.56a.52.52,0,0,1,.29.25c.27.57.45,1.21,1.34.77.17-.09.53.17.79.29.48.22.73.11.66-.45-.05-.41.13-.44.48-.46a4.45,4.45,0,0,0,1.2-.3c.18-.06.33-.12.3.13s.07.51.46.45.52.29.49.64c-.07.68-.08.68.34,1,.11.26.15.63.35.75s.51-.06.77-.13a1.63,1.63,0,0,0,.35-.2,1.4,1.4,0,0,0-.34-.26c-.8-.27-.81-.36-.2-1a2.54,2.54,0,0,0,.34-.69c.55,0,1.07.3,1.64.07.17-.07.43.06.65.1a4.39,4.39,0,0,0-.25.54,2.51,2.51,0,0,0-.06.48l0,0c-.41.64-.39.89.14,1.54C107.37,18.47,107.62,19.08,108.11,18.56Zm-2.34-2-1.31-.08C105,16.92,105.34,17.25,105.77,16.6Zm1.5,4.38-.28-.32-.39.41c.08.07.18.22.22.2A2.46,2.46,0,0,0,107.27,21Zm-5.35-5.41s-.05.06,0,.07a.39.39,0,0,0,.08.08l.05-.15Z"/><path class="cls-3" d="M125.52,26.6c.32-.08.63-.17.95-.22.09,0,.2.09.31.13-.06.1-.1.23-.19.29a2.2,2.2,0,0,1-.46.17c.14.06.32.07.4.17a10.21,10.21,0,0,1,.73,1.14c0,.05-.11.28-.22.32-.5.17-1,.28-1.51.46-.16.06-.28.25-.42.37a4.2,4.2,0,0,0,.52.09c.07,0,.14-.09.22-.11.35-.1.84-.37.5.41,0,.1.22.3.28.48a.79.79,0,0,1-.2,1c-.43.33-.84.68-1.34,1.1A2.61,2.61,0,0,0,125,32a4.34,4.34,0,0,0-.24-.45l-.6.39a2.12,2.12,0,0,1,.36.24.42.42,0,0,1,.08.26,3.07,3.07,0,0,1-.43.16,1.23,1.23,0,0,1,.34.12c.18.14.32.35.52.45.39.19.38.33.06.6a.9.9,0,0,0-.32.69,1.26,1.26,0,0,1-.16,1.21c-.24.31-.05.6.44.6.17,0,.38.21.51.38a1.93,1.93,0,0,1,.2.55c-.21,0-.42,0-.63,0a3.93,3.93,0,0,0-.47.08c0,.18,0,.42.13.54s.84.2.36.75l1,.35a5,5,0,0,0-.76.1,1.23,1.23,0,0,0-.33.25c.08.08.16.22.24.23.52,0,.78.31.69.82s-.15,1-.76,1c-.32,0-.55.15-.41.43s.44.39.67.58c.15-.36.31-.15.42,0a1.63,1.63,0,0,1,.32.68c0,.51-.19,1.16.05,1.5a1.3,1.3,0,0,1,0,1.44,2.61,2.61,0,0,0,0,1c0,.49,0,1,.11,1.47,0,.23.3.44.28.64a3.78,3.78,0,0,1-.32.8.34.34,0,0,0,.12.28c.45.34.92.64,1.35,1,.07.06,0,.33-.06.5l-.25.25a1.08,1.08,0,0,0-.35,0,1.27,1.27,0,0,0-.31.2,1.33,1.33,0,0,0,.42,0c.09,0,.15-.15.23-.23l.25-.25c.58.28.67.7.23,1.11-.26.24-.24.45,0,.43.54-.06.47.2.5.57s-.27.91.29,1.19v0a12.06,12.06,0,0,0,0,2.41,1.16,1.16,0,0,1-.26,1c-.62.44.56.8,0,1.08a9.86,9.86,0,0,1-1.15.28c-.14.05-.2.31-.46.75-.06-.54-.1-.79-.11-1s0-.57,0-.88l.73.17.18.09-.19-.08a8.14,8.14,0,0,1-.66-1.09c-.15-.35.06-.85-.48-1-.08,0-.08-.25-.12-.38-.09.11-.27.24-.25.34.18,1.23-.27,2.49.21,3.7.05.13,0,.44-.06.45-.83.23-.4.88-.4,1.32,0,.91.19,1.82.18,2.73,0,1.15-.17,2.3-.26,3.46-.37-.29-.94-.43-.89-1.13,0-.34-.25-.39-.53-.33s-.54,0-.35.42c0,.08-.15.28-.26.39s-.3.1-.29.12c.15,1-.63.87-1.18.86-1.21,0-2.42-.13-3.63-.22-.18,0-.47-.11-.51-.24-.3-.85-1-.78-1.66-.73a1.26,1.26,0,0,1-1.36-.84,10.45,10.45,0,0,1-1.1-4.34,6.13,6.13,0,0,0,0-1c0-.16-.33-.41-.38-.39-.86.46-1.6-.16-2.39-.23-.19,0-.39.14-.59.22.11.09.28.16.33.27a2.74,2.74,0,0,1,.2,1.11c-.43-.38-1.32-.31-1.11-1.23,0,0-.3-.11-.37-.22s-.22-.43-.15-.53a7.15,7.15,0,0,1,1-1.17c.36-.32.65-.52-.12-.58,0,0-.08-.38,0-.45a.78.78,0,0,1,.56-.23c.5.08.76-.08.85-.58a.59.59,0,0,1,.35-.35c2-.76,3.38-2.4,4.94-3.77a12.35,12.35,0,0,0,3.81-6.75,7.6,7.6,0,0,0-.11-3.47,1.22,1.22,0,0,0-.26-.56c-1.06-1.09-1.82-2.53-3.39-3.05a3.11,3.11,0,0,1-.34-.16c-.36-.17-.42-.44-.11-.67a20.12,20.12,0,0,0,5.06-5.85A13.9,13.9,0,0,0,124,26.27a8,8,0,0,0-.19-2c-.06-.36-.34-.7-.36-1.06-.06-1-.8-1.08-1.46-1.47-2.15-1.27-4.34-.9-6.56-.48a10,10,0,0,1-1.22.23c-.74,0-1.13-.41-1-1.17s-.2-1.42.39-2c0,0,0-.23-.07-.3a1.39,1.39,0,0,1-.23-1.47c.35-.71.27-.85-.53-.83-.5,0-1,.08-1.5.12l.17-.57,1.51,0c.45,0,.83-.09.59-.73-.06-.16.13-.48.29-.64a2.64,2.64,0,0,1,.69-.36c0,.22,0,.44,0,.66s0,.32,0,.57A13.35,13.35,0,0,0,118,14c1-.54,2.12-.23,3.09-.67.09,0,.24,0,.4.07-.19.66-.73.75-1.24.89s-.75.29-1.14.37a15.9,15.9,0,0,1-2.2.35,6,6,0,0,0-2.58.92c.84.16,1.43.31,2,.36.36,0,.9.22.88-.51,0-.06.11-.18.14-.17,1.35.41,2.71-.32,4,.06a1,1,0,0,0,1.28-.46c.16-.25.23-.5.63-.15s.9.22,1-.43,0-1.07,0-1.61h0c.1-.1.27-.18.28-.29.09-.64.14-1.29.22-2.07.6.34,1.38.19,1.29,1.15,0,.15.39.34.77.65-.94-.07-1.27.36-1.3,1.06,0,.15,0,.41.11.45,1.13.51.53,1.55.74,2.34.08.3.09.61.15.91s.13.54.2.82c.11.48.23,1,.33,1.44a5.89,5.89,0,0,1,.19,1.19c0,.38-.23.77.23,1.08a.62.62,0,0,1-.08.53c-.47.21-.21-.34-.26-.33-.38.09-.44-.94-.94-.27a6.68,6.68,0,0,0-.41.7,2.66,2.66,0,0,0,.74.21c.46,0,.74.22.44.56a1,1,0,0,0-.08,1.26c.13.3.15.63-.22.71-.84.18-.88.92-1.14,1.52l-.09.06s0,0,0,.06Zm-.25,1.54a.47.47,0,0,0,0-.1s0,0-.06,0l.12.11c.1.11.23.32.31.3a4.8,4.8,0,0,0,.84-.29.39.39,0,0,0,0-.11l-.78.09Zm0-7.1c0-.08,0-.18,0-.24a2,2,0,0,0-.38-.51s-.25.13-.38.2a3.48,3.48,0,0,0,.34.57c.06.07.23,0,.36.06l.31.47c.34-.29,1-.36.95-.93a21.16,21.16,0,0,0-.31-2.33c0-.08-.17-.14-.26-.21,0,.09-.14.18-.14.28-.05.85-.08,1.7-.14,2.54C125.64,21,125.43,21,125.31,21Zm.36,3.13c.05.07.07.13.1.14l.65.16a1,1,0,0,0,0-.22,5.33,5.33,0,0,0-.56-.13S125.8,24.14,125.68,24.18Zm-.25,7,.26-.07a.75.75,0,0,0-.13-.26s-.15,0-.23.06Zm2.34,22.3-.09-.1s-.08.06-.08.09,0,.06.08.09Z"/><path class="cls-3" d="M112.79,23.68c.37-.1.76-.1,1-.3.38-.33.58-.1.95,0a12.75,12.75,0,0,0,2.35.2c.25,0,.6-.39.76.17,0,.06.38.06.58,0a4.35,4.35,0,0,0,1.07-.23c.34-.15.54-.14.6.26.1.64.57,1,1.24,1.39,0-.52,0-.88,0-1.23a3.5,3.5,0,0,1,.13-.57c.15,0,.38,0,.43.11s.28.68.21.73c-.79.56-.33,1.16-.13,1.76.12.35.17.73.31,1.08.61,1.6-.14,2.95-.87,4.25a25.16,25.16,0,0,1-5.44,6.51.84.84,0,0,1-1,.24,11.63,11.63,0,0,0-1.94-.43,1.24,1.24,0,0,1-1.15-1.2,6,6,0,0,1,.21-2c.11-.37.57-.62,0-1,0,0,.27-.5.3-.77s-.17-.55-.15-.81.28-.23.41-.37a.52.52,0,0,0-.21-.26,1.32,1.32,0,0,0-.43,0,1.85,1.85,0,0,1,.25-.27c.2-.14.17-.15.3-.53s.6-.46,0-.67c-.05,0,0-.37,0-.57s.19-.63.12-.68c-.61-.41-.39-.59.15-.73-.29-.58.55-1,.27-1.59a1.81,1.81,0,0,1,0-1.2C113.27,24.32,113.32,24.33,112.79,23.68Z"/><path class="cls-3" d="M110.41,56.36a1.9,1.9,0,0,1,.19-.41c.12-.14.39-.25.39-.38a.41.41,0,0,0-.44-.46c-.81,0,.54-.63-.17-.74-.06,0-.08-.27-.11-.42a1.24,1.24,0,0,1,.43.08c.35.21.47,0,.44-.27a5.19,5.19,0,0,1,.33-2.38,3.41,3.41,0,0,0,.2-1.06c.06-.77-.26-1.6.37-2.29,0,0,0-.26,0-.26-.91,0-.34-.49-.31-.82.08-.65.11-1.32.23-2,.06-.33.36-.61.43-.95a4.45,4.45,0,0,0-.07-.93c0-.24.12-.51.07-.73-.1-.39-.22-.78.16-1a3,3,0,0,1,1.31-.65c1.41-.06,2.82.05,3.73,1.4,1.2.33,1.33,1.51,1.54,2.38a7.27,7.27,0,0,1-.09,3.21,9.07,9.07,0,0,1-3,4.68c-1.49,1.34-3.14,2.5-4.74,3.71a2.6,2.6,0,0,1-.82.26Zm.79-1.47.07.19.79-.28-.07-.2Z"/><path class="cls-2" d="M109.16,51.35a.71.71,0,0,0-.08.39,2.94,2.94,0,0,1-.93,2.69c-.26.29-.34.49,0,.84a10.44,10.44,0,0,1,.86,1.32c.18.28.17.7-.15.68-.51,0-.65.4-1,.51-1.06.35-2.16.59-3.25.86-.68.17-1.36.35-2,.49-.41.08-.51-.17-.44-.52.12-.57.26-1.14.37-1.71a1.69,1.69,0,0,1,.73-1.11c1.22-.87,2.4-1.79,3.6-2.68Z"/><path class="cls-2" d="M108.88,47.78l-.68-.05-.24-.09.08.25c.09,1.64.09,1.63-1.36,2.2-.88.35-1.76.73-2.85,1.19l1.69-6.39a.75.75,0,0,1,.67-.64,8.33,8.33,0,0,0,1-.27c.91-.25,1-.2,1.12.76,0,.08,0,.25,0,.25-.36,0-.44.26-.28.51s.31.62.74.39c.59-.32.6.32.78.53s-.26.29-.34.44a3.64,3.64,0,0,0-.23.9Z"/><path class="cls-2" d="M111.39,15.28l-.17.57c0,.26.19.64-.31.69h-.12c-.14-.2-.25-.52-.44-.57a3.59,3.59,0,0,1-1.47-1.06c-.32-.29-.28-.43,0-.65C110,13.3,111,13.72,111.39,15.28Z"/><path class="cls-2" d="M106.42,13c-.22-.5-.72-1,0-1.5.06,0,.11-.23.08-.25-.4-.36-.18-.78-.12-1.17a2.18,2.18,0,0,1,.26-.56c.15.19.42.38.42.55,0,.44.39.82,0,1.35-.28.36-.17,1-.24,1.57Z"/><path class="cls-3" d="M128.81,54.85l.52-1.76c.37.85.92,1.52.66,2.43a2,2,0,0,1-.4.55,4.72,4.72,0,0,1-.53-.58c-.13-.19.26-.61-.26-.65Z"/><path class="cls-3" d="M129,66.65a11.44,11.44,0,0,1-1.33-1.48c-.1-.16.15-.61.33-.86a.55.55,0,0,1,.54-.07,1.07,1.07,0,0,1,.25.61C128.84,65.36,128.88,65.88,129,66.65Z"/><path class="cls-3" d="M104.88,15.62a2.54,2.54,0,0,1-.34.69c-.61.63-.6.72.2,1a1.4,1.4,0,0,1,.34.26,1.63,1.63,0,0,1-.35.2c-.26.07-.61.24-.77.13s-.24-.49-.35-.75c.48-.21.16-.53.13-.82-.09-.7-.07-.72.67-.69C104.56,15.63,104.72,15.62,104.88,15.62Z"/><path class="cls-3" d="M106.42,13h.4c0,.54.08,1.07.07,1.61,0,.21-.19.41-.29.62l-.5-.32c-.58-.36-.82-.66,0-1C106.31,13.79,106.32,13.3,106.42,13Z"/><path class="cls-3" d="M124.28,13c-.53.12-1.15.05-1.38.78,0,.12-.52.13-.79.12-.11,0-.31-.21-.29-.3a.68.68,0,0,1,.28-.48c.52-.21,1.08-.35,1.61-.53s.49.13.56.43Z"/><path class="cls-3" d="M108.88,47.77c.67.11.91.48.69,1.13-.12.35-.21.7-.32,1.07-.69-.16-.63-.65-.53-1.17.06-.34.11-.68.16-1Z"/><path class="cls-3" d="M108.11,18.56c-.49.51-.74-.1-1.09-.24l-.18-.91A1.63,1.63,0,0,1,108.11,18.56Z"/><path class="cls-3" d="M110.33,29.91c-.14.06-.28.12-.41.19a4,4,0,0,0-.34.25,3.46,3.46,0,0,1-.05-.5,1.31,1.31,0,0,1,.1-.34s.11,0,.11,0c.05-.24.1-.49.14-.73.13.27.27.55.39.83A1.34,1.34,0,0,1,110.33,29.91Z"/><path class="cls-2" d="M109.33,43.64l.24,1.69C109,44.55,109,44.55,109.33,43.64Z"/><path class="cls-3" d="M98.48,69,99,69l.31.91c-.54.13-.5-.4-.72-.64A1.38,1.38,0,0,1,98.48,69Z"/><path class="cls-3" d="M110.66,31.92c0-.12,0-.25,0-.37s.08-.37.12-.56c.07,0,.2.05.2.1a1.25,1.25,0,0,1,0,.59c0,.11-.27.15-.41.23Z"/><path class="cls-3" d="M127.6,11.77c.09.17.21.31.18.36a1.56,1.56,0,0,1-.35.29c-.08-.11-.24-.27-.22-.32S127.44,11.89,127.6,11.77Z"/><path class="cls-3" d="M127.54,25.85c-.36.17-.52.3-.62.27a2.93,2.93,0,0,1-.59-.34,1.62,1.62,0,0,1,.5-.18A2.83,2.83,0,0,1,127.54,25.85Z"/><path class="cls-3" d="M110.85,36.79c-.25.22-.36.39-.45.37a1.58,1.58,0,0,1-.47-.23,2,2,0,0,1,.42-.26C110.43,36.64,110.56,36.72,110.85,36.79Z"/><path class="cls-3" d="M110.8,16.54h.12a.63.63,0,0,1-.07.22,5.47,5.47,0,0,1-.45.45l-.15-.13c.14-.17.29-.34.45-.5A.33.33,0,0,1,110.8,16.54Z"/><path class="cls-3" d="M125.93,32.13c.18.43.3.58.27.69a1.85,1.85,0,0,1-.31.48c-.06-.09-.16-.18-.16-.26A8.27,8.27,0,0,1,125.93,32.13Z"/><path class="cls-3" d="M102.44,13.09l.35.53c-.07,0-.17.09-.19.07s-.29-.31-.43-.46Z"/><path class="cls-3" d="M112.2,62.32c-.11-.2-.23-.32-.2-.39a.58.58,0,0,1,.29-.28s.24.15.23.2S112.37,62.08,112.2,62.32Z"/><path class="cls-3" d="M107.72,42.17l.28.22c-.2.11-.4.23-.61.32,0,0-.14-.06-.21-.09Z"/><path class="cls-3" d="M109,64.92l-.29-.1c.1-.17.19-.34.3-.5a2.28,2.28,0,0,1,.25.14Z"/><path class="cls-3" d="M94.86,15.46l-.54.07c-.13-.43,0-.71.47-.76l0,0Z"/><path class="cls-3" d="M115.61,13.05l-.53.42c0-.1-.14-.28-.12-.3a5.38,5.38,0,0,1,.56-.37Z"/><path class="cls-3" d="M110.24,37.7a2.71,2.71,0,0,1-.51.22c-.06,0-.14-.1-.22-.15a1.8,1.8,0,0,1,.36-.29S110,37.57,110.24,37.7Z"/><path class="cls-3" d="M93.49,16l-.24.29A1,1,0,0,1,93,16c0-.05.12-.21.18-.2S93.39,16,93.49,16Z"/><path class="cls-3" d="M90.35,63.67c.18-.13.26-.23.33-.23s.24.07.26.14-.09.28-.12.27A2,2,0,0,1,90.35,63.67Z"/><path class="cls-2" d="M107.07,16.7l.78.12,0,.19h-.69Z"/><path class="cls-3" d="M126,34l-.26.17c0-.08-.11-.2-.08-.24a.89.89,0,0,1,.27-.17Z"/><path class="cls-3" d="M90,57.52l.19-.32.13.3Z"/><path class="cls-3" d="M110.41,56.35l-.13.18.14-.17Z"/><path class="cls-3" d="M106.86,42.88s-.07.06-.1.06-.06,0-.09-.07.07-.06.1-.06S106.83,42.86,106.86,42.88Z"/><path class="cls-3" d="M107.07,16.7l.07.31-.25-.23,0,0A.34.34,0,0,1,107.07,16.7Z"/><path class="cls-4" d="M32.77,163.93c0-1.71,0-2,0-2.39s-.11-.56-.48-.64a2.35,2.35,0,0,0-.44,0c-.12,0-.19,0-.19-.1s.08-.1.25-.1c.6,0,1.31,0,1.54,0l1.59,0a3.6,3.6,0,0,1,2.07.48,2,2,0,0,1,.77,1.54,3.16,3.16,0,0,1-1.49,2.52c1,1.26,1.78,2.26,2.44,3a2.24,2.24,0,0,0,1.26.77l.32,0c.09,0,.13,0,.13.09s-.08.11-.21.11H39.23A2.29,2.29,0,0,1,38,169a5.42,5.42,0,0,1-1.54-1.65c-.45-.62-1-1.38-1.11-1.55a.23.23,0,0,0-.2-.08l-1,0c-.06,0-.09,0-.09.09v.16c0,1,0,1.94.06,2.41s.1.57.44.62a5.1,5.1,0,0,0,.55,0c.09,0,.14,0,.14.09s-.08.11-.23.11c-.65,0-1.49,0-1.65,0s-.92,0-1.37,0c-.15,0-.23,0-.23-.11s0-.09.18-.09a1.82,1.82,0,0,0,.41,0c.23,0,.28-.29.33-.62s.06-1.36.06-2.4Zm1.33.89c0,.12,0,.17.1.2a3,3,0,0,0,.86.11,1.13,1.13,0,0,0,.8-.19,2,2,0,0,0,.66-1.69,1.8,1.8,0,0,0-1.72-2.06,2.44,2.44,0,0,0-.6,0c-.08,0-.1.07-.1.16Z"/><path class="cls-4" d="M39.31,164.92A4.34,4.34,0,0,1,44,160.51c2.8,0,4.55,1.63,4.55,4.21a4.45,4.45,0,0,1-4.66,4.62A4.29,4.29,0,0,1,39.31,164.92Zm7.62.21c0-2.52-1.45-4.09-3.3-4.09-1.29,0-2.77.72-2.77,3.52,0,2.34,1.29,4.2,3.46,4.2C45.11,168.77,46.94,168.39,46.94,165.13Z"/><path class="cls-4" d="M49.74,163.93c0-1.71,0-2,0-2.39s-.11-.56-.48-.64a2.35,2.35,0,0,0-.44,0c-.12,0-.19,0-.19-.1s.08-.1.25-.1c.6,0,1.31,0,1.53,0,.55,0,1,0,1.37,0,2,0,2.4,1.09,2.4,1.69a2.45,2.45,0,0,1-1.15,2,2.74,2.74,0,0,1,2,2.43c0,1.2-.93,2.45-3,2.45l-.79,0-.84,0h-.64l-.78,0c-.15,0-.23,0-.23-.11s0-.09.18-.09a1.82,1.82,0,0,0,.41,0c.23,0,.28-.29.33-.62s.06-1.36.06-2.4Zm1.35.19c0,.09,0,.11.08.12a2.71,2.71,0,0,0,.53,0,1.15,1.15,0,0,0,.81-.21,1.47,1.47,0,0,0,.46-1.19c0-.75-.44-1.75-1.41-1.75a1.85,1.85,0,0,0-.37,0c-.08,0-.1.07-.1.19Zm1.49.9a1.62,1.62,0,0,0-.93-.27h-.48s-.07,0-.07.08v2.67c0,.74,0,.93.39,1.08a2,2,0,0,0,.82.14,1.31,1.31,0,0,0,1.36-1.44A2.68,2.68,0,0,0,52.58,165Z"/><path class="cls-4" d="M56.58,163.93c0-1.71,0-2,0-2.39s-.11-.56-.48-.64a2.35,2.35,0,0,0-.44,0c-.12,0-.19,0-.19-.1s.08-.1.25-.1h.91l.71,0c.36,0,2.6,0,2.81,0l.48-.07a1,1,0,0,1,.18,0c.06,0,.07,0,.07.1a7.12,7.12,0,0,0-.09.73c0,.11,0,.61-.06.74s0,.12-.11.12-.1-.06-.1-.16a1.22,1.22,0,0,0-.07-.41c-.08-.2-.19-.34-.75-.41-.19,0-1.37,0-1.6,0-.06,0-.08,0-.08.11v2.85c0,.08,0,.12.08.12.25,0,1.54,0,1.8,0s.44-.06.54-.17.12-.15.18-.15.08,0,.08.09,0,.25-.09.82c0,.23,0,.68,0,.75s0,.21-.1.21a.09.09,0,0,1-.1-.1,2.91,2.91,0,0,0,0-.41c-.06-.23-.21-.39-.63-.44-.21,0-1.33,0-1.6,0-.06,0-.07,0-.07.11v.89c0,.38,0,1.42,0,1.75,0,.78.2.95,1.35.95a2.85,2.85,0,0,0,1.06-.14c.29-.13.43-.37.51-.83,0-.12,0-.17.12-.17s.09.09.09.2a8.8,8.8,0,0,1-.15,1.25c-.08.29-.18.29-.61.29-.84,0-1.46,0-1.95,0l-1.17,0h-.64l-.78,0c-.15,0-.23,0-.23-.11s0-.09.18-.09a1.82,1.82,0,0,0,.41,0c.23,0,.28-.29.33-.62s.06-1.36.06-2.4Z"/><path class="cls-4" d="M63,163.93c0-1.71,0-2,0-2.39s-.11-.56-.48-.64a2.35,2.35,0,0,0-.44,0c-.12,0-.19,0-.19-.1s.08-.1.25-.1c.6,0,1.31,0,1.54,0l1.59,0a3.6,3.6,0,0,1,2.07.48,2,2,0,0,1,.77,1.54,3.16,3.16,0,0,1-1.49,2.52c1,1.26,1.78,2.26,2.44,3a2.24,2.24,0,0,0,1.26.77l.32,0c.09,0,.14,0,.14.09s-.08.11-.21.11H69.48a2.29,2.29,0,0,1-1.2-.21,5.42,5.42,0,0,1-1.54-1.65c-.45-.62-1-1.38-1.11-1.55a.23.23,0,0,0-.2-.08l-1,0c-.06,0-.09,0-.09.09v.16c0,1,0,1.94.06,2.41s.1.57.44.62a5.1,5.1,0,0,0,.55,0c.09,0,.14,0,.14.09s-.08.11-.23.11c-.65,0-1.49,0-1.65,0s-.92,0-1.37,0c-.15,0-.23,0-.23-.11s0-.09.18-.09a1.82,1.82,0,0,0,.41,0c.23,0,.28-.29.33-.62s.06-1.36.06-2.4Zm1.33.89c0,.12,0,.17.1.2a3,3,0,0,0,.86.11,1.13,1.13,0,0,0,.8-.19,2,2,0,0,0,.66-1.69A1.8,1.8,0,0,0,65,161.19a2.44,2.44,0,0,0-.6,0c-.08,0-.1.07-.1.16Z"/><path class="cls-4" d="M72.14,161.29l-1.68,0c-.65,0-.92.08-1.09.33a1.33,1.33,0,0,0-.19.39c0,.09-.06.13-.12.13s-.1-.06-.1-.18.21-1.2.24-1.29.07-.21.13-.21a2.59,2.59,0,0,0,.48.13c.33,0,.75.06,1.13.06H75.4a5.34,5.34,0,0,0,.78-.06l.3-.06c.08,0,.09.07.09.24s0,1,0,1.31c0,.11,0,.18-.1.18s-.11-.06-.12-.23V162c0-.29-.33-.61-1.33-.63l-1.42,0v4.62c0,1,0,1.92.06,2.41,0,.32.1.56.44.61a4.68,4.68,0,0,0,.57,0c.12,0,.18,0,.18.09s-.09.11-.21.11c-.74,0-1.45,0-1.77,0s-1,0-1.42,0c-.15,0-.23,0-.23-.11s0-.09.18-.09a1.82,1.82,0,0,0,.41,0c.23,0,.29-.29.33-.62s.06-1.36.06-2.4Z"/><path class="cls-4" d="M82.44,160.71c0-.19.1-.29.19-.29s.16.06.3.35L86,167.12l3.06-6.43c.09-.18.15-.27.25-.27s.17.11.2.35l1,7c.1.71.21,1,.55,1.14a2.25,2.25,0,0,0,.7.11c.1,0,.18,0,.18.08s-.13.12-.29.12-1.84,0-2.29-.07c-.26,0-.33-.06-.33-.12s0-.09.12-.12.1-.17.06-.48l-.68-5h0l-2.45,5.11c-.26.53-.32.63-.42.63s-.21-.23-.39-.56C85,168.08,84.1,166.36,84,166s-.78-1.66-1.17-2.5h0L82.17,168a4.39,4.39,0,0,0,0,.53c0,.21.15.32.34.36a2.18,2.18,0,0,0,.47.06c.09,0,.17,0,.17.08s-.1.12-.27.12c-.47,0-1,0-1.18,0s-.75,0-1.11,0c-.11,0-.2,0-.2-.12s.07-.08.18-.08a1.46,1.46,0,0,0,.34,0c.32-.07.41-.51.46-.89Z"/><path class="cls-4" d="M92.42,168.45a.68.68,0,0,1,.69-.69.65.65,0,0,1,.69.65.69.69,0,0,1-.7.72A.66.66,0,0,1,92.42,168.45Z"/><path class="cls-4" d="M101,166.26a2.39,2.39,0,0,0-.26-1.18c-.08-.18-1.59-2.66-2-3.24A2.76,2.76,0,0,0,98,161a1.14,1.14,0,0,0-.47-.15c-.09,0-.17,0-.17-.1s.08-.1.21-.1l1.42,0c.24,0,.7,0,1.2,0,.11,0,.17,0,.17.1s-.08.08-.25.12a.2.2,0,0,0-.16.2,1,1,0,0,0,.14.38c.16.34,1.73,3.05,1.91,3.37.11-.27,1.53-2.75,1.69-3.1a1.47,1.47,0,0,0,.16-.59.27.27,0,0,0-.24-.28c-.1,0-.2,0-.2-.11s.06-.1.19-.1c.37,0,.73,0,1.06,0l1.2,0c.12,0,.2,0,.2.09s-.09.11-.21.11a1.22,1.22,0,0,0-.5.13,1.68,1.68,0,0,0-.61.55,35.88,35.88,0,0,0-2.15,3.58,2.69,2.69,0,0,0-.17,1.13v.92c0,.18,0,.65,0,1.13s.12.57.46.62a4.68,4.68,0,0,0,.56,0c.12,0,.18,0,.18.09s-.09.11-.24.11c-.71,0-1.42,0-1.72,0l-1.41,0c-.16,0-.25,0-.25-.11s.06-.09.18-.09a1.79,1.79,0,0,0,.39,0c.23,0,.33-.29.35-.62s0-.95,0-1.13Z"/><path class="cls-4" d="M105.38,164.92a4.34,4.34,0,0,1,4.65-4.41c2.8,0,4.55,1.63,4.55,4.21a4.45,4.45,0,0,1-4.66,4.62A4.29,4.29,0,0,1,105.38,164.92Zm7.62.21c0-2.52-1.45-4.09-3.3-4.09-1.29,0-2.77.72-2.77,3.52,0,2.34,1.29,4.2,3.46,4.2C111.18,168.77,113,168.39,113,165.13Z"/><path class="cls-4" d="M116.11,163.93c0-1.71,0-2,0-2.39s-.11-.56-.48-.64a2.35,2.35,0,0,0-.44,0c-.12,0-.19,0-.19-.1s.08-.1.25-.1c.6,0,1.31,0,1.64,0l1.38,0c.17,0,.25,0,.25.1s-.07.1-.18.1a1.72,1.72,0,0,0-.33,0c-.3.06-.39.25-.42.64s0,.68,0,2.39v1.58c0,1.63.33,2.32.88,2.77a2.08,2.08,0,0,0,1.41.46,2.21,2.21,0,0,0,1.55-.61c.62-.62.65-1.63.65-2.79v-1.41c0-1.71,0-2,0-2.39s-.11-.56-.48-.64a2.21,2.21,0,0,0-.41,0c-.12,0-.19,0-.19-.1s.08-.1.24-.1c.57,0,1.28,0,1.29,0s.84,0,1.28,0c.16,0,.24,0,.24.1s-.07.1-.2.1a1.72,1.72,0,0,0-.33,0c-.3.06-.39.25-.42.64s0,.68,0,2.39v1.2a4.26,4.26,0,0,1-1.07,3.39,3.36,3.36,0,0,1-2.34.81,3.62,3.62,0,0,1-2.5-.78,3.7,3.7,0,0,1-1-3Z"/><path class="cls-4" d="M126.38,167.64c0,.88.17,1.17.39,1.25a1.8,1.8,0,0,0,.59.08c.12,0,.19,0,.19.09s-.1.11-.26.11c-.73,0-1.18,0-1.4,0s-.63,0-1.22,0c-.15,0-.25,0-.25-.11s.07-.09.18-.09a2,2,0,0,0,.51-.06c.29-.09.34-.42.35-1.4l.1-6.67c0-.23,0-.38.15-.38s.23.15.42.35,1.85,2,3.49,3.61c.77.77,2.29,2.39,2.48,2.57h.06l-.11-5.06c0-.69-.11-.9-.38-1a1.85,1.85,0,0,0-.6-.07c-.14,0-.18,0-.18-.1s.12-.1.29-.1c.59,0,1.13,0,1.36,0s.55,0,1.1,0c.15,0,.26,0,.26.1s-.07.1-.2.1a1.23,1.23,0,0,0-.34,0c-.32.09-.41.33-.42,1l-.12,7.1c0,.25,0,.35-.15.35s-.26-.12-.38-.25c-.71-.68-2.15-2.15-3.32-3.31s-2.48-2.62-2.68-2.84h0Z"/><path class="cls-4" d="M142.68,168.42c0,.3,0,.33-.15.41a6.37,6.37,0,0,1-2.71.51c-2.76,0-5.2-1.31-5.2-4.41a4.21,4.21,0,0,1,2-3.68,5.45,5.45,0,0,1,3-.73,13.56,13.56,0,0,1,2,.18,7.42,7.42,0,0,0,.89.12c.13,0,.16.06.16.13a15.26,15.26,0,0,0-.08,1.85c0,.18,0,.24-.12.24s-.1-.06-.11-.15a1.58,1.58,0,0,0-.38-.93,3.6,3.6,0,0,0-2.51-.88,3.24,3.24,0,0,0-2.23.7,3.35,3.35,0,0,0-1,2.76,3.91,3.91,0,0,0,3.92,4.23,2.5,2.5,0,0,0,1-.12.4.4,0,0,0,.21-.42v-1.06c0-.56,0-1,0-1.33s-.11-.56-.48-.64a2.29,2.29,0,0,0-.44,0c-.1,0-.17,0-.17-.09s.08-.11.24-.11c.59,0,1.29,0,1.63,0l1.32,0c.15,0,.23,0,.23.11s-.07.09-.15.09a1.75,1.75,0,0,0-.3,0c-.3.06-.42.25-.43.64s0,.79,0,1.35Z"/><path class="cls-4" d="M148.55,164.58c0-1.5,0-1.77,0-2.09s-.1-.49-.42-.56a2,2,0,0,0-.38,0c-.11,0-.17,0-.17-.09s.07-.09.22-.09c.52,0,1.14,0,1.42,0s.93,0,1.52,0c1.23,0,2.87,0,3.95,1.12a3.52,3.52,0,0,1,1,2.5,3.91,3.91,0,0,1-1.07,2.75,4.49,4.49,0,0,1-3.3,1.16c-.35,0-.76,0-1.13-.06s-.72-.06-1-.06h-.56l-.68,0c-.13,0-.2,0-.2-.1s0-.08.16-.08a1.58,1.58,0,0,0,.35,0c.2,0,.25-.26.29-.54s0-1.19,0-2.1Zm1.23,1.08c0,1,0,1.8,0,2a2.15,2.15,0,0,0,.11.75c.13.19.51.39,1.29.39a3.16,3.16,0,0,0,2.26-.71,3.11,3.11,0,0,0,.83-2.45,3.34,3.34,0,0,0-.95-2.46,3.9,3.9,0,0,0-2.8-1,2.65,2.65,0,0,0-.64.07.18.18,0,0,0-.12.2c0,.33,0,1.19,0,2Z"/><path class="cls-4" d="M157.27,164.58c0-1.5,0-1.77,0-2.09s-.1-.49-.42-.56a2,2,0,0,0-.38,0c-.11,0-.17,0-.17-.09s.07-.09.22-.09c.52,0,1.14,0,1.42,0s.93,0,1.52,0c1.23,0,2.87,0,3.95,1.12a3.52,3.52,0,0,1,1,2.5,3.91,3.91,0,0,1-1.07,2.75,4.49,4.49,0,0,1-3.3,1.16c-.35,0-.76,0-1.13-.06s-.72-.06-1-.06h-.56l-.68,0c-.13,0-.2,0-.2-.1s0-.08.16-.08a1.58,1.58,0,0,0,.35,0c.2,0,.25-.26.29-.54s0-1.19,0-2.1Zm1.23,1.08c0,1,0,1.8,0,2a2.15,2.15,0,0,0,.11.75c.13.19.51.39,1.29.39a3.16,3.16,0,0,0,2.26-.71,3.11,3.11,0,0,0,.83-2.45,3.34,3.34,0,0,0-.95-2.46,3.9,3.9,0,0,0-2.8-1,2.65,2.65,0,0,0-.64.07.18.18,0,0,0-.12.2c0,.33,0,1.19,0,2Z"/><path class="cls-4" d="M165.55,169.05c-.16-.07-.19-.12-.19-.33,0-.54,0-1.13,0-1.29s0-.26.12-.26.1.09.1.17a2.05,2.05,0,0,0,.09.5,1.36,1.36,0,0,0,1.41,1,1.2,1.2,0,0,0,1.32-1.12c0-.48-.15-.94-1-1.58l-.45-.35a2.92,2.92,0,0,1-1.46-2.33c0-1.08.91-1.86,2.27-1.86a4.76,4.76,0,0,1,1.31.17c.09,0,.14,0,.14.12s0,.41,0,1.18c0,.22,0,.3-.11.3s-.1-.06-.1-.18a1.19,1.19,0,0,0-.26-.65,1.25,1.25,0,0,0-1.07-.48,1,1,0,0,0-1.17,1c0,.45.23.8,1,1.42l.28.21c1.19.9,1.61,1.57,1.61,2.51a2,2,0,0,1-.93,1.71,2.85,2.85,0,0,1-1.57.4A3.41,3.41,0,0,1,165.55,169.05Z"/><path class="cls-4" d="M174.77,164.58c0-1.5,0-1.77,0-2.09s-.1-.49-.42-.56a2,2,0,0,0-.38,0c-.11,0-.17,0-.17-.09s.07-.09.22-.09c.52,0,1.14,0,1.42,0l1.43,0a2.4,2.4,0,0,1,1.83.56,1.71,1.71,0,0,1,.49,1.17,2.32,2.32,0,0,1-2.42,2.38h-.21s-.12,0-.12-.09.07-.11.28-.11A1.55,1.55,0,0,0,178,164a1.9,1.9,0,0,0-.58-1.48,1.46,1.46,0,0,0-1-.38,1.39,1.39,0,0,0-.38,0s-.08.08-.08.19v3.94c0,.91,0,1.68,0,2.11s.09.49.38.53a4.07,4.07,0,0,0,.5,0c.11,0,.16,0,.16.08s-.08.1-.19.1c-.65,0-1.27,0-1.53,0l-1.24,0c-.13,0-.2,0-.2-.1s0-.08.16-.08a1.58,1.58,0,0,0,.35,0c.2,0,.25-.26.29-.54s0-1.19,0-2.1Z"/><path class="cls-4" d="M180.53,166.6s-.07,0-.09.08l-.53,1.41a1.91,1.91,0,0,0-.15.6c0,.18.09.31.39.31h.15c.12,0,.15,0,.15.08s-.06.1-.17.1l-1,0c-.11,0-.65,0-1.16,0-.13,0-.19,0-.19-.1s0-.08.12-.08l.31,0c.45-.06.64-.39.84-.89l2.47-6.18c.12-.29.18-.39.28-.39s.15.09.25.32c.24.54,1.81,4.56,2.44,6.05.37.89.66,1,.87,1.07a2.16,2.16,0,0,0,.41,0c.08,0,.13,0,.13.08s-.09.1-.45.1-1.07,0-1.86,0c-.18,0-.3,0-.3-.08s0-.08.14-.09a.16.16,0,0,0,.09-.23l-.79-2.09a.1.1,0,0,0-.1-.07Zm2-.49s.06,0,0-.06l-.89-2.43s0-.09,0-.09,0,0-.06.09l-.91,2.42s0,.07,0,.07Z"/></svg>