<svg id="Layer_1" data-name="Layer 1" xmlns="http://www.w3.org/2000/svg" width="236" height="94" viewBox="0 0 236 94"><defs><style>.cls-1{fill:#7c690c;}.cls-2{fill:#b36018;}.cls-3{fill:#b2963d;}.cls-4{fill:#373434;}</style></defs><title>Artboard 1</title><path class="cls-1" d="M85.92,24.12c.44,2,.84,3.87,1.31,5.75.32,1.29.45,1.34,1.75,1.28a3.34,3.34,0,0,1,.44,0,1,1,0,0,1,.27.11c-.08.1-.13.28-.23.3-.61.14-1.23.25-1.84.37l-3.14.6a3.32,3.32,0,0,1-.42.11c-.09,0-.19-.07-.28-.11.06-.11.1-.26.2-.31,1.07-.61,1.15-.68.94-1.87q-.69-4.08-1.46-8.15c-.39-2.06-.81-4.12-1.24-6.17-.3-1.39-.51-1.52-2-1.43-.14,0-.3-.11-.45-.17.11-.09.2-.22.32-.26a7.55,7.55,0,0,1,.76-.14c2-.39,4-.82,6-1.14a7.5,7.5,0,0,1,2.42,0,4.48,4.48,0,0,1,3.67,5.3,8.51,8.51,0,0,1-1.41,3.56c-.48.74-.47.76.19,1.33,1.57,1.34,3.13,2.69,4.72,4a7.26,7.26,0,0,0,3.28,1.74c1,.19,1.49,0,1.94-1a7.43,7.43,0,0,0,.47-1.46c1.25-5.34,2.49-10.68,3.75-16a4.78,4.78,0,0,1,.44-.93,4.91,4.91,0,0,1,.68.8c2.49,4.63,5,9.28,7.46,13.91a14.5,14.5,0,0,0,1.14,1.76,2.3,2.3,0,0,0,2.1,1c.18,0,.36,0,.6,0-.08.17-.12.33-.17.34q-2.24.28-4.49.54c-.27,0-.53,0-.33-.42a.93.93,0,0,0-.07-.7c-.9-1.77-1.83-3.53-2.74-5.29a.66.66,0,0,0-.78-.43c-1.49.21-3,.41-4.49.58a.69.69,0,0,0-.71.66c-.3,1.63-.66,3.24-1,4.87-.21,1.16-.09,1.28,1.1,1.47.11,0,.21.14.32.21a1.17,1.17,0,0,1-.34.23,7.14,7.14,0,0,1-.76.1c-1.53.2-3.08.32-4.59.61a5,5,0,0,1-4.5-1.21C93.17,27,91.53,25.59,90,24.09a1.55,1.55,0,0,0-1.58-.45C87.62,23.82,86.86,23.94,85.92,24.12Zm5.24-4.8a20.25,20.25,0,0,0-.4-2.16c-.83-2.8-3.07-3.94-5.85-3-.76.25-.83.35-.68,1.11.38,2,.77,4,1.17,5.94s.41,1.93,2.36,1.7a7.32,7.32,0,0,0,1.29-.27C90.4,22.22,91.08,21.1,91.17,19.32Zm15.31-5.95c-.1.08-.19.13-.2.18Q105.63,16.8,105,20c-.09.44.16.5.5.46l4.25-.52Z"/><path class="cls-1" d="M207.11,32.61a1.54,1.54,0,0,1,.38-.14c1.26,0,1.44-.07,1.81-1.27.6-2,1.15-3.95,1.68-5.93q1.1-4.09,2.15-8.2c.31-1.24.19-1.42-.95-2a2.44,2.44,0,0,1-.4-.18.43.43,0,0,1-.11-.26s.12-.1.18-.09a3.27,3.27,0,0,1,.53.1c2.59.69,5.18,1.37,7.77,2.09a13.39,13.39,0,0,1,4.28,2,8.26,8.26,0,0,1,3.45,8.52,9.8,9.8,0,0,1-4.78,7.21,9,9,0,0,1-5.29,1.16,25.34,25.34,0,0,1-6.19-1.53c-1.12-.35-2.25-.66-3.38-1A2.28,2.28,0,0,1,207.11,32.61Zm18.44-7.23a8,8,0,0,0-4.8-7.16,25.81,25.81,0,0,0-4.05-1.39c-1-.28-1.11-.17-1.39.84q-1.23,4.52-2.43,9c-.4,1.53-.75,3.07-1.12,4.6a1.59,1.59,0,0,0,1,2,11.29,11.29,0,0,0,5,1.34,6.6,6.6,0,0,0,5.66-2.45A10.73,10.73,0,0,0,225.55,25.38Z"/><path class="cls-1" d="M61.4,19.2a1.75,1.75,0,0,1,.42-.26c2-.55,4-1.13,6.07-1.62a5.27,5.27,0,0,1,2-.08A3.75,3.75,0,0,1,73,22a21.29,21.29,0,0,1-1,2.62c.63.18,1.29.32,1.93.55a5,5,0,0,1,3.54,4A5.2,5.2,0,0,1,75.4,34.3a8.22,8.22,0,0,1-3.08,1.42c-1.6.43-3.2.83-4.8,1.24a3.19,3.19,0,0,1-.53.12c-.08,0-.17-.08-.25-.13s.08-.2.16-.26c.29-.21.78-.35.85-.61a3.53,3.53,0,0,0,0-1.63c-.53-2.14-1.11-4.27-1.69-6.4-.64-2.34-1.31-4.67-2-7,0-.18-.1-.35-.16-.53-.4-1.16-.56-1.26-1.76-1.18-.23,0-.47,0-.71,0Zm8.88,6.74c-.46.1-1.24.29-2,.45-.37.08-.46.23-.35.61.33,1.09.61,2.2.93,3.29s.66,2.26,1,3.39a1.38,1.38,0,0,0,1.32,1.14,5,5,0,0,0,3.33-.94,3,3,0,0,0,1.13-3.34,6.58,6.58,0,0,0-1.56-3A4.87,4.87,0,0,0,70.28,25.95Zm1.17-3.2a5,5,0,0,0-.93-3,3.1,3.1,0,0,0-4-1.25c-.79.3-.84.39-.61,1.22.39,1.41.8,2.82,1.19,4.23.53,1.9.53,1.9,2.41,1.33A2.32,2.32,0,0,0,71.45,22.74Z"/><path class="cls-1" d="M178.67,9.2c.49,0,1,.07,1.46.12,2.81.32,5.63.66,8.44,1,.36,0,.46.15.39.47-.17.75-.33,1.51-.52,2.25,0,.15-.2.27-.31.41a1.54,1.54,0,0,1-.2-.44c-.12-1.14-.21-1.35-1.29-1.61s-2.31-.42-3.48-.59c-.11,0-.37.22-.39.37-.27,2-.49,4.1-.77,6.14-.07.5.15.69.57.73,1.21.13,2.42.28,3.63.34a6.15,6.15,0,0,0,1.45-.3l-.76,3.5h-.24c0-.25-.08-.51-.09-.76a1.12,1.12,0,0,0-.93-1.21c-1.15-.24-2.31-.44-3.48-.61-.12,0-.38.22-.41.37-.12.61-.18,1.24-.26,1.86-.18,1.46-.42,2.92-.53,4.38s.23,1.78,1.6,2a19.65,19.65,0,0,0,2.3.27c1.35.06,1.76-.23,2.28-1.46l.31-.7c.39.74,0,1.27-.08,1.79-.41,1.77-.5,1.81-2.32,1.57L177.29,28a.94.94,0,0,1-.32-.06c-.09,0-.19-.16-.19-.24s.13-.16.22-.2a.38.38,0,0,1,.22,0c.82.11,1.14-.4,1.28-1.07.18-.86.36-1.73.47-2.61q.76-6.08,1.48-12.17c.17-1.4,0-1.66-1.39-2l-.4-.13Z"/><path class="cls-1" d="M150.11,26.11a1.51,1.51,0,0,1,.38-.25c1.06-.25,1.18-.33,1.28-1.42q.19-2,.25-4c.12-3.5.21-7,.31-10.49,0-.18,0-.37,0-.55,0-1-.24-1.29-1.23-1.52-.21,0-.44-.05-.65-.1,0,0-.09-.12-.08-.18s.07-.16.11-.16c.33,0,.66,0,1,0,2.58.09,5.15.19,7.73.27a16.29,16.29,0,0,0,1.65-.07c.26,0,.46,0,.42.33-.14,1-.3,1.94-.46,2.91l-.22,0a6,6,0,0,1-.19-.61c-.18-.89-.46-1.27-1.34-1.37-1.31-.15-2.64-.18-4-.26-.31,0-.48.1-.49.44q-.1,3.15-.22,6.29c0,.4.19.5.54.5,1.29,0,2.58.09,3.87,0a6.48,6.48,0,0,0,1.58-.49c-.14,1.13-.27,2.28-.42,3.44,0,.07-.14.12-.21.18s-.16-.15-.18-.24a6.59,6.59,0,0,0-.21-1,1.27,1.27,0,0,0-1.14-.76c-1.1-.08-2.2-.13-3.31-.2-.45,0-.56.18-.57.59,0,2.17-.13,4.34-.13,6.52,0,1.68.09,1.72,1.77,2,.14,0,.25.18.37.28a1.12,1.12,0,0,1-.37.14l-5.52-.18C150.36,26.29,150.27,26.2,150.11,26.11Z"/><path class="cls-1" d="M128.4,11.28c-.1-.3-.23-.6-.3-.9a2,2,0,0,0-1.48-1.5,4.54,4.54,0,0,0-2.83,0,2.74,2.74,0,0,0-1.29,4.4,20,20,0,0,0,2.82,2.45c.77.63,1.62,1.15,2.37,1.8a5.88,5.88,0,0,1,2.18,3.84,5.06,5.06,0,0,1-2.76,5.3,8,8,0,0,1-5.71.41c-.77-.21-.85-.36-.89-1.18s-.07-1.62-.07-2.43c0-.16.18-.33.28-.49a1.56,1.56,0,0,1,.21.45,2.93,2.93,0,0,0,2.54,2.8,3.8,3.8,0,0,0,4.07-1.32,3.55,3.55,0,0,0-.29-4.31,16.49,16.49,0,0,0-2.14-1.9c-.89-.72-1.85-1.35-2.71-2.09a5.74,5.74,0,0,1-2.15-3.85,4.31,4.31,0,0,1,2.8-4.63,9.9,9.9,0,0,1,5.23-.23c.13,0,.34.21.34.32,0,1,0,2,0,3Z"/><path class="cls-1" d="M143.82,10.91a9.15,9.15,0,0,1-.25-.89,1.92,1.92,0,0,0-1.05-1.47,4.09,4.09,0,0,0-3.83-.09,2.81,2.81,0,0,0-.77,4.28,17.72,17.72,0,0,0,2.24,2.12c.83.72,1.76,1.35,2.56,2.11a5.65,5.65,0,0,1,2,5.33,4.89,4.89,0,0,1-3.58,4.08,7.82,7.82,0,0,1-5-.09c-.88-.31-1-.41-1-1.36s.07-1.69.13-2.53c0-.11.15-.2.23-.3.08.11.2.21.22.33s0,.44,0,.66a2.84,2.84,0,0,0,1.47,2.09,4.38,4.38,0,0,0,3.43.3,3.38,3.38,0,0,0,1.66-5.17,9.1,9.1,0,0,0-1.57-1.69c-1.18-1.06-2.44-2-3.58-3.12a5.19,5.19,0,0,1-1.65-4,4.26,4.26,0,0,1,3-4.1A8.71,8.71,0,0,1,143,7.27a5.8,5.8,0,0,1,.86.16.51.51,0,0,1,.3.36c0,.92,0,1.84-.07,2.76C144.1,10.64,144,10.72,143.82,10.91Z"/><path class="cls-1" d="M204.06,28.73a6.91,6.91,0,0,1-1,2.92c-.26.44-.78.31-1.22.22l-5.31-1.06c-1.08-.21-2.17-.4-3.26-.6a3.59,3.59,0,0,1-.65-.12c-.14-.05-.23-.21-.35-.32.12,0,.25-.15.36-.14.91.14,1.27-.39,1.44-1.15.35-1.58.73-3.16,1-4.74.59-3.15,1.13-6.31,1.69-9.46a6.52,6.52,0,0,0,.11-.76c.05-.93-.1-1.16-1-1.49-.21-.08-.43-.12-.63-.22s-.09-.17-.11-.26.12-.1.17-.09c.47.06.94.13,1.41.22l3.69.67a5.1,5.1,0,0,1,.73.21s.07.12.06.18-.08.14-.12.15-.36,0-.55,0c-1,0-1.26.17-1.49,1.21s-.42,2.09-.6,3.15q-.89,5.06-1.76,10.12a5.63,5.63,0,0,0-.08.88c0,1,.27,1.49,1.29,1.75s1.94.42,2.93.57a2.16,2.16,0,0,0,2.52-1.33,4.76,4.76,0,0,1,.39-.59Z"/><path class="cls-1" d="M165.24,26.85c.13-.19.15-.24.18-.24,1.43-.3,1.49-.29,1.67-1.81.25-2,.43-4,.59-6,.21-2.64.38-5.29.56-7.93a7.16,7.16,0,0,0,0-.77c0-.93-.19-1.12-1.08-1.4a3.5,3.5,0,0,1-.42-.14.21.21,0,0,1-.09-.17.22.22,0,0,1,.12-.16,1.45,1.45,0,0,1,.43,0l4.84.41c.09,0,.17.1.39.26a4.72,4.72,0,0,1-.55.16c-1,.14-1.25.35-1.35,1.4q-.35,3.85-.65,7.7c-.17,2.31-.3,4.63-.44,6.94a4.25,4.25,0,0,0,0,.66,1.11,1.11,0,0,0,1,1.16c.18,0,.37,0,.54.1a4.88,4.88,0,0,1,.59.31,5.64,5.64,0,0,1-.7.12,6.49,6.49,0,0,1-.77,0c-1.32-.09-2.64-.18-4-.28A7.18,7.18,0,0,1,165.24,26.85Z"/><path class="cls-2" d="M182.76,44.81c.73.1.94-.38,1.12-1,.66-2.1,1.33-4.2,2-6.3.18-.56.35-1.12.55-1.68,0-.12.18-.21.27-.32.12.11.32.2.36.34.35,1.08.67,2.18,1,3.27s.72,2.39,1.09,3.58a6.1,6.1,0,0,0,.32.68l2.87-4.18c.5-.73,1-1.46,1.52-2.18.11-.15.33-.21.5-.31a2,2,0,0,1,.14.5c0,2.07,0,4.13,0,6.2,0,.7,0,1.4,0,2.1a1,1,0,0,0,.72,1.11V47c-.68-.12-1.37-.26-2.05-.37-.42-.07-.58-.1-.43-.67a10.09,10.09,0,0,0,.11-2.41c0-1,0-2,0-3.31L191,42.8c-.66.93-1.29,1.88-2,2.8-.36.49-.5.47-.69-.1-.53-1.64-1-3.29-1.55-4.94l-.4-1.3c-.34,1.12-.61,2-.87,2.85-.2.67-.35,1.35-.59,2s-.08.91.55,1c.09,0,.17.12.22.35L182.77,45A2.11,2.11,0,0,0,182.76,44.81Z"/><path class="cls-2" d="M105.58,42.27l1.87-5.61c.21-.63.41-1.26.64-1.88.05-.14.23-.24.34-.35.09.11.23.21.26.34.28,1,.55,1.91.82,2.86.42,1.48.88,3,1.23,4.46.23,1,.58,1.74,1.75,1.86-.78.08-1.56.16-2.33.25-.51.06-.65,0-.77-.64-.34-1.72-.87-3.41-1.38-5.29a6.09,6.09,0,0,0-.38.73c-.52,1.53-1,3.07-1.54,4.6-.14.41-.32.81-.53,1.37-1.58-1.79-2.6-3.83-4.1-5.6q0,2.51,0,5c0,.37.2.52.55.54a.6.6,0,0,1,.51.28l-2.92.38a1.63,1.63,0,0,0,.81-1.65c0-2.61.12-5.23.18-7.84a2.91,2.91,0,0,1,0-.44c.05-.29.24-.39.45-.17a5.14,5.14,0,0,1,.59.79l3.55,5.46Z"/><path class="cls-2" d="M157.49,35.29c0-.2-.09-.4-.15-.6a1.58,1.58,0,0,0-2.14-1.14,1.19,1.19,0,0,0-.82,1.07,2.15,2.15,0,0,0,.46,1.66c1.06,1.27,2.15,2.51,3.24,3.76.28.32.49.22.64-.14.08-.2.19-.4.26-.61.28-.89.14-1.19-.85-1.68a2.67,2.67,0,0,1,2,.11c.14,0,.24.55.16.77a11.9,11.9,0,0,1-.82,1.8c-.37.66-.43.7.2,1.14s1.58,1,2.49,1.53a5.48,5.48,0,0,1-3.73-.65.87.87,0,0,0-1.15-.05,4.5,4.5,0,0,1-4.34.22,2.74,2.74,0,0,1-1-4.34,5.09,5.09,0,0,0,.95-2.84,2.23,2.23,0,0,1,1.42-2.17,4.27,4.27,0,0,1,3.13-.1c.36.11.58.3.51.72s-.16,1-.24,1.55Zm-.33,6.12c-1-1.23-2.09-2.45-3.15-3.66a.44.44,0,0,0-.43,0,2.48,2.48,0,0,0-.57,2.44A2.25,2.25,0,0,0,154.85,42,2.63,2.63,0,0,0,157.15,41.41Z"/><path class="cls-2" d="M84.58,48.42A4.92,4.92,0,0,1,79.68,44,4.85,4.85,0,0,1,83,38.63a12,12,0,0,1,2.26-.42c2.59-.2,4.63,1.55,4.91,4.42C90.48,45.95,88.08,48.42,84.58,48.42Zm3.89-3.57c-.08-2.29-.54-3.81-1.86-5s-4.6-1.11-5.22,1.5A6,6,0,0,0,83.58,47a3.43,3.43,0,0,0,2.85.43A2.63,2.63,0,0,0,88.47,44.85Z"/><path class="cls-2" d="M77.19,42.83a2.06,2.06,0,0,0-2.6-1.53A7.82,7.82,0,0,0,72.4,42a2.35,2.35,0,0,0-1.32,1.93,5.05,5.05,0,0,0,2,5.15,3.91,3.91,0,0,0,4.38.1c.62-.34.75-.6,1.07-1.82.78,1.16.52,2.18-.7,2.65a7.52,7.52,0,0,1-5.37.44A4.77,4.77,0,0,1,69.24,46a4.5,4.5,0,0,1,2.21-4.4,10.53,10.53,0,0,1,5.07-1.32c.16,0,.44.08.46.17.19.76.32,1.53.48,2.3Z"/><path class="cls-2" d="M145.72,40.11c-.1.6-.17,1.21-.32,1.79a.81.81,0,0,1-.51.49c-2.18.43-4.33.51-6.26-.85a4.76,4.76,0,0,1-1.86-5.1,4.53,4.53,0,0,1,3.43-3.68,10.56,10.56,0,0,1,4.93,0c.27.05.45.17.44.51,0,.69,0,1.39,0,2.08l-.23,0a1.36,1.36,0,0,1-.2-.39,1.81,1.81,0,0,0-1.3-1.5,5,5,0,0,0-2.94-.14,2.88,2.88,0,0,0-2.12,2.2,5.48,5.48,0,0,0,.18,3.69,4.08,4.08,0,0,0,4.91,2.41,3,3,0,0,0,1.21-.89,2.61,2.61,0,0,0,.39-.76Z"/><path class="cls-2" d="M113.64,43.62c1,0,1-.66,1-1.3-.17-2.2-.33-4.4-.53-6.6-.1-1.12-.17-1.16-1.55-1.43.51-.11.78-.19,1-.22l4.83-.47c.31,0,.51,0,.51.36a8,8,0,0,1-.11,1.55c-.35-.42-.48-1-1.18-.93-.51.07-1,0-1.54.09a.47.47,0,0,0-.3.35c0,.85.12,1.69.19,2.53a.45.45,0,0,0,.59.47l2.39-.33v1.78c-.31-.24-.58-.62-.91-.68a2.88,2.88,0,0,0-1.73.1c-.55.31-.06,1-.07,1.52a6.88,6.88,0,0,0,.1,1.43,1.34,1.34,0,0,0,.43.83c.66.42,1.36,0,2,0,.45-.06.64-.45.72-.88a1.89,1.89,0,0,1,.21-.42c.07.16.12.21.12.27,0,1.86.23,1.89-1.68,1.95-1.32,0-2.64.23-4,.34a2.35,2.35,0,0,1-.43,0Z"/><path class="cls-2" d="M173,43.57c.63-.19.88-.74,1.16-1.26,1.24-2.29,2.47-4.58,3.72-6.87a8.49,8.49,0,0,1,.7-1,6.58,6.58,0,0,1,.55,1.11c.7,2.5,1.36,5,2.06,7.53.18.63.38,1.28,1.09,1.55V45c-.77-.08-1.54-.14-2.3-.24-.3,0-.43,0-.41-.56a9.59,9.59,0,0,0-.58-2.66.49.49,0,0,0-.3-.26,4.88,4.88,0,0,0-.65-.1c-2-.33-2-.33-2.89,1.47-.42.88-.42.89.63,1.59l-2.56-.31Zm3.41-3.37,1.95.24c.29,0,.41-.11.34-.39-.22-.9-.45-1.79-.73-2.9Z"/><path class="cls-2" d="M127.83,42.79a8.65,8.65,0,0,1-1,.15c-1,0-2,0-3,0,.78-.53.81-.53.76-1.77-.08-2.06-.18-4.12-.29-6.18,0-.8-.12-.85-.94-.82l-.66,0a1.71,1.71,0,0,0-1.89,1.26c-.31-.8,0-1.35,0-1.9,0-.08.27-.22.42-.22,2-.08,4-.15,6-.22l.66,0,1.37-.05c0,.51.08,1,.11,1.53a1.7,1.7,0,0,1-.09.35c-.64-1.41-1.83-.88-2.84-1-.4,0-.5.21-.48.55.15,2.28.27,4.56.45,6.83.08,1,.14,1,1.13,1.21C127.6,42.59,127.68,42.69,127.83,42.79Z"/><path class="cls-2" d="M215.14,51.63l-3.77-1c.82-.07,1.08-.62,1.25-1.26a13.48,13.48,0,0,0,.44-1.71,4.9,4.9,0,0,0,0-1.75,32.65,32.65,0,0,0-1.13-3.69,10.73,10.73,0,0,0-1-1.74,1.37,1.37,0,0,1,.42,0c.78.19,1.56.4,2.34.62.24.06.43.14.13.41a.66.66,0,0,0-.21.53c.33,1.35.7,2.69,1.09,4.18,1-1,1.85-1.93,2.7-2.86.15-.17.3-.52.23-.68-.22-.46-.14-.58.34-.45.77.21,1.55.43,2.34.73a3.67,3.67,0,0,0-2.48,1.33c-.78.73-1.55,1.48-2.26,2.27a4,4,0,0,0-.68,1.24,13.34,13.34,0,0,0-.44,1.59C214.06,50.79,214.07,50.79,215.14,51.63Z"/><path class="cls-2" d="M169.89,43.64l-3.4-.28c-.06,0-.11-.08-.28-.21a1,1,0,0,0,1.16-1.1c0-.81.16-1.61.23-2.41.13-1.43.27-2.86.36-4.29.08-1.17.06-1.17-1.23-1.62a3.7,3.7,0,0,1,.71-.12c1.8.14,3.59.31,5.39.44.28,0,.42.11.37.39-.09.49-.2,1-.37,1.78-.29-.74-.32-1.4-1.1-1.38-.55,0-1.1-.14-1.65-.15-.12,0-.33.28-.35.45-.11.84-.18,1.68-.23,2.53,0,.11.19.34.29.33.9,0,1.79.45,2.79-.07L172.22,40a2.1,2.1,0,0,0-2.46-1.2.5.5,0,0,0-.33.33q-.15,1.76-.24,3.52c0,.46.31.63.71.68Z"/><path class="cls-2" d="M92.91,44.1c.13.3.25.6.4.88a1.56,1.56,0,0,0,1.22.84,1.86,1.86,0,0,0,2-.89,1.67,1.67,0,0,0-.67-2c-.41-.31-.89-.51-1.31-.81a10.83,10.83,0,0,1-1.83-1.4,2.44,2.44,0,0,1,.76-4A5,5,0,0,1,96,36.27c.34,0,.55.1.57.5s.12,1,.19,1.56l-.21.06-.36-.61a1.41,1.41,0,0,0-1.29-.71,1.55,1.55,0,0,0-1.61.92,1.43,1.43,0,0,0,.72,1.6c.64.43,1.33.77,2,1.18a3.53,3.53,0,0,1,1.89,2.45,2.69,2.69,0,0,1-1.34,2.9,5.07,5.07,0,0,1-3.11.48.77.77,0,0,1-.56-.43c-.14-.66-.18-1.34-.26-2Z"/><path class="cls-2" d="M209.55,48.09l-.44,1.29a.7.7,0,0,1-.95.51c-.75-.19-1.49-.39-2.24-.57-1.07-.26-2.14-.5-3.27-.82,1.14-.15,1.25-1,1.43-1.84.43-1.93.88-3.86,1.31-5.8.23-1.06.22-1.06-.62-1.81l3.92.88c-.19.15-.25.23-.29.22-1-.09-1-.08-1.29,1-.46,1.85-.88,3.71-1.29,5.57-.31,1.43-.08,1.77,1.32,2.06C208.32,49.07,208.44,49,209.55,48.09Z"/><path class="cls-2" d="M131,32.93h3.66c-.3.19-.69.3-.82.55a2.33,2.33,0,0,0-.1,1.08c.06,2.09.12,4.19.22,6.28.06,1.29.08,1.29,1.29,1.52a11.43,11.43,0,0,1-4,.23c.3-.17.65-.25.77-.46a1.9,1.9,0,0,0,.16-1q0-3.25-.13-6.51C132,33.58,131.93,33.49,131,32.93Z"/><path class="cls-2" d="M200.46,48.09l-3.77-.73c.18-.15.26-.25.31-.24.63.13.87-.24,1-.75.19-.86.36-1.73.54-2.59.27-1.3.54-2.59.8-3.89s.19-1.33-.93-2.14l3.93.78v.18a2,2,0,0,1-.45.09.67.67,0,0,0-.75.64c-.46,2.42-.91,4.84-1.39,7.25a.82.82,0,0,0,.72,1.12Z"/><path class="cls-1" d="M173,43.57l.21.36a.87.87,0,0,1-.32,0,4.33,4.33,0,0,1-.52-.23Z"/><path class="cls-1" d="M195.15,47v-.33a.79.79,0,0,1,.32,0,1.35,1.35,0,0,1,.28.27,1,1,0,0,1-.29.11A1.12,1.12,0,0,1,195.15,47Z"/><path class="cls-1" d="M169.89,43.64v-.29l.41.2Z"/><path class="cls-1" d="M182.31,45v-.3l.45.12a2.11,2.11,0,0,1,0,.22Z"/><path class="cls-1" d="M200.46,48.09V47.8l.37.23Z"/><path class="cls-1" d="M165.69,65.65c-.88.41-1.75.86-2.65,1.21a3.26,3.26,0,0,1-1.29.12c-1.31-.06-1.67-.54-1.51-1.9l.08-.26-.26.07a13.22,13.22,0,0,1-4,2.46,7.29,7.29,0,0,1-4.87.11,2.85,2.85,0,0,1-2-2.75,6,6,0,0,1,1.08-3.54,12.12,12.12,0,0,1,3-3.22.74.74,0,0,0,.27-1c-.86-2.17.28-3.92,2.62-4.08a4.72,4.72,0,0,1,3.75,1.28,1.56,1.56,0,0,0,1.37.42,10.83,10.83,0,0,1,2.62.15,1.81,1.81,0,0,1,1.57,1.38,2,2,0,0,1-.86,2.13,7.59,7.59,0,0,1-4.46,1.4,8.82,8.82,0,0,1-4.72-.89.55.55,0,0,0-.77.13,11.11,11.11,0,0,0-3,4.83c-.64,2.47.7,3.88,3.23,3.46a11.39,11.39,0,0,0,5.11-2.7,12.43,12.43,0,0,1,4.28-2.4,4.81,4.81,0,0,1,1.74-.15c.81.08,1,.68.55,1.35a2.43,2.43,0,0,1-.82.72c-.75.38-1.53.7-2.31,1a3.48,3.48,0,0,1-.74.22.56.56,0,0,0-.51.71c.06.44.4.51.74.45a8,8,0,0,0,1.38-.35,11.51,11.51,0,0,0,1.19-.58Zm-10.38-7.41a8.16,8.16,0,0,0,3.59,1,6.88,6.88,0,0,0,3.35-.49A3.22,3.22,0,0,0,164,57.14a1.5,1.5,0,0,0-1.13-2.26,6.59,6.59,0,0,0-1.65,0c-.42,0-.62.19-.45.71a2.48,2.48,0,0,1,.07,1.88c-.22-.66-.4-1.23-.59-1.79-.11-.32-.28-.45-.66-.27A17.26,17.26,0,0,0,155.31,58.24Zm4.22-3.47a4,4,0,0,0-4.25-1.26,2.27,2.27,0,0,0-1.34,3.29c.2.4.39.44.75.21a17.76,17.76,0,0,1,4.72-2.07C159.45,54.92,159.49,54.82,159.53,54.77Zm3,10.1a4.8,4.8,0,0,0,2.24-1.23,3.92,3.92,0,0,0,.64-.89c.16-.29,0-.52-.35-.45a1.29,1.29,0,0,0-.5.21A7.48,7.48,0,0,0,162.54,64.87Z"/><path class="cls-1" d="M139.1,63.67c2.31-2.67,4.56-5.39,7-8a38.8,38.8,0,0,1,4.19-3.77,10.31,10.31,0,0,1,2.24-1.14,1,1,0,0,1,1.21.28.9.9,0,0,1,0,1.14,14.22,14.22,0,0,1-1.6,2.23A44.14,44.14,0,0,1,146,59.5c-.48.35-1,.66-1.46,1l-.18-.21,2.28-1.92a38.36,38.36,0,0,0,5.39-5,9,9,0,0,0,.94-1.48.47.47,0,0,0-.67-.61,7.25,7.25,0,0,0-1.58,1.17c-2.22,2.51-4.39,5.06-6.57,7.61a3.5,3.5,0,0,0-.29.46l.26,0,.19.21A12,12,0,0,0,140.75,65a4.37,4.37,0,0,0-.27,1.1,4.42,4.42,0,0,0,1.08-.36c.58-.38,1.11-.84,1.66-1.27A1.66,1.66,0,0,1,144,64a2.17,2.17,0,0,1-.33.47,21.65,21.65,0,0,1-2.34,1.82,4.86,4.86,0,0,1-2,.63c-.9.1-1.29-.48-1-1.33.07-.24.22-.46.3-.71s0-.33,0-.37a.46.46,0,0,0-.4,0,6.45,6.45,0,0,0-.6.48c-.55.43-1.08.88-1.66,1.28a4.4,4.4,0,0,1-1.09.52c-1.14.38-1.6.16-2-1-.38.22-.75.45-1.13.64a5.5,5.5,0,0,1-.91.37c-1.62.48-2.31-.13-2-1.79l.1-.24-.26.06-.55.36-.23-.23a17.19,17.19,0,0,1,4.42-2.8,6.63,6.63,0,0,1,1.49-.38,1.39,1.39,0,0,1,1.7.75,2,2,0,0,1,2.33-.55c-.55.69-1,1.3-1.53,1.93s-.76,1-1.1,1.52a1.67,1.67,0,0,0-.13.57,1.7,1.7,0,0,0,.62-.07,7.92,7.92,0,0,0,1.1-.73c.41-.32.76-.7,1.18-1a5.41,5.41,0,0,1,1-.43l0,.42c.11-.06.3-.12.31-.18A1.07,1.07,0,0,0,139.1,63.67Zm-8.4,2.77a7.41,7.41,0,0,0,.91-.35,9.41,9.41,0,0,0,3-2.83,1,1,0,0,0,.17-.88c-.25-.43-.64-.1-1,0a.88.88,0,0,0-.28.17c-.92.89-1.85,1.77-2.76,2.67a1.39,1.39,0,0,0-.34.68C130.45,66.07,130.61,66.25,130.71,66.44Z"/><path class="cls-1" d="M106.56,55.24c-.85.35-1.71.66-2.53,1s-.72.5-.25,1a5.65,5.65,0,0,1,.93,1.49,5.14,5.14,0,0,1-2.27,6.65A11.76,11.76,0,0,1,96.63,67c-1.65,0-3.31-.1-5-.13-.47,0-.95.1-1.42.1-1.8,0-3.61,0-5.41,0-.46,0-1.18,0-1.19-.5s.69-.52,1.15-.56a26.33,26.33,0,0,1,6.27.27,2.64,2.64,0,0,0,1.78-.38,10.61,10.61,0,0,0,3-2.79,28.94,28.94,0,0,1,6-6.09c.51-.36.2-.5-.09-.69A10,10,0,0,0,97,54.79v-.32a9.92,9.92,0,0,1,5.31,1.5,1,1,0,0,0,1,0c1-.41,2.13-.73,3.19-1.09ZM92.82,66.32a9.77,9.77,0,0,0,4.57,0,8.21,8.21,0,0,0,5.67-4.5,4.85,4.85,0,0,0,.18-4c-.28-.74-.45-.77-.92-.15-.81,1-1.59,2.12-2.36,3.19a14.37,14.37,0,0,1-5.07,4.5C94.29,65.72,93.64,66,92.82,66.32Z"/><path class="cls-1" d="M183.54,64.87c-.59.44-1.16.89-1.77,1.31a3.78,3.78,0,0,1-2.35.8c-.81,0-1.1-.43-1-1.22.06-.31.08-.63.11-.95h0l.23-.24,0,0,.35-.24c.47-.18.52-.5.3-.9l1-.82-.14-.23-.47,0c-.12,0-.24-.05-.57-.13.31-.13.44-.24.56-.23a2.06,2.06,0,0,0,1.93-1A29.67,29.67,0,0,1,184,58.6a2.1,2.1,0,0,1,1.56-.7,2.15,2.15,0,0,1,.5.14,2,2,0,0,1-.22.46c-.86,1-1.73,2-2.59,3a3.71,3.71,0,0,0-.24.36l0,.44c-.16.07-.39.1-.48.22q-1,1.41-1.85,2.86a1.63,1.63,0,0,0-.09.62,1.86,1.86,0,0,0,.7,0,3.93,3.93,0,0,0,1.11-.71A19.2,19.2,0,0,1,185.58,63a6.75,6.75,0,0,1,3.05-1.18,2.9,2.9,0,0,1,1,0,.72.72,0,0,1,.49,1.18,2.12,2.12,0,0,1-.75.78c-.81.42-1.65.77-2.49,1.13a3.41,3.41,0,0,1-.74.22.56.56,0,0,0-.49.72c0,.38.32.48.64.45a4.14,4.14,0,0,0,1.07-.2c.55-.21,1.06-.49,1.6-.74l.24.23c-.88.41-1.74.86-2.64,1.22a3.1,3.1,0,0,1-1.18.13c-1.38,0-1.78-.52-1.62-1.91l.09-.27Zm2.53-.28.16.2a4.21,4.21,0,0,0,2.59-1.84c.09-.15,0-.39,0-.59a1.06,1.06,0,0,0-1.06.39C187.21,63.34,186.65,64,186.08,64.58Z"/><path class="cls-1" d="M115.72,65.47a3.21,3.21,0,0,1-2.26,1.4c-.67,0-.84-.19-.49-.76.48-.78,1-1.53,1.54-2.28a4.08,4.08,0,0,0,.66-1.23,4.11,4.11,0,0,0-.69.33c-1.15.84-2.28,1.71-3.43,2.56a6.78,6.78,0,0,1-3.85,1.5,3.52,3.52,0,0,1-1.29-.22,1,1,0,0,1-.59-.59,5,5,0,0,1,0-1.59c0-.24.32-.47.54-.65a9.27,9.27,0,0,1,3.46-1.9,5,5,0,0,1,1.74-.15.77.77,0,0,1,.56,1.31,2.26,2.26,0,0,1-.8.73c-.82.41-1.67.75-2.51,1.1a4,4,0,0,0-.83.28.83.83,0,0,0-.27.64.59.59,0,0,0,.42.41,3.06,3.06,0,0,0,1.29-.18,16.35,16.35,0,0,0,2.29-1.31c1-.68,1.91-1.48,2.9-2.15a7.91,7.91,0,0,1,1.78-.83.8.8,0,0,1,1.06.34,1.78,1.78,0,0,1-.09,1,4.91,4.91,0,0,1-.43.87h0l-.45.46,0,0-.36.44Q115.17,65.21,115.72,65.47Zm-8-.86a3.41,3.41,0,0,0,2.75-1.66c.09-.14,0-.39,0-.6a1.44,1.44,0,0,0-.52,0,2,2,0,0,0-.63.44C108.76,63.4,108.23,64,107.69,64.6Z"/><path class="cls-1" d="M93.29,57.3c1.23-.31,2.13-.08,2.45.82a3.38,3.38,0,0,1,.07,1.82,3.85,3.85,0,0,1-1.47,2.15,6.93,6.93,0,0,1-5.85,1.26c-2.38-.5-3.2-2.54-2-4.65a7.66,7.66,0,0,1,3.52-2.92,13.63,13.63,0,0,1,5.43-1.31l.21.31a10.71,10.71,0,0,0-5.75,2,5.3,5.3,0,0,0-2.28,3.4,4.36,4.36,0,0,0-.06.88,1.93,1.93,0,0,0,1.82,2,5.82,5.82,0,0,0,5.66-3.26,1.65,1.65,0,0,0,0-1.78,1.46,1.46,0,0,0-1.8-.39Z"/><path class="cls-1" d="M123.31,64.24l2.34-1.77-1.31-.23c.35-.13.54-.27.71-.25a1.87,1.87,0,0,0,1.66-.84c.77-.88,1.57-1.74,2.41-2.56s1-.74,2.25-.57c-.36.4-.68.73-1,1.08-.75.93-1.48,1.88-2.21,2.82l-.16.38c-.16.08-.37.12-.46.24-.61.88-1.2,1.76-1.76,2.67a2.4,2.4,0,0,0-.16.81l.81-.11a1.26,1.26,0,0,0,.21-.07l.25.24a3.67,3.67,0,0,1-2.3.87c-.92,0-1.27-.44-1-1.32a7.38,7.38,0,0,1,.5-1.08c.24-.26.24-.29,0-.37l-.63.31Z"/><path class="cls-1" d="M192.48,62.32c-.07-1.09.51-1.75,1.47-1.63a1.84,1.84,0,0,1,.49.22c-.08.14-.16.29-.25.43s-.21.17-.2.25.08.38.17.4c.39.09.81.09,1.2.19s.6.42.34.83-.74.91-1.08,1.39-1,.88-.86,1.66c.72,0,1.19-.48,1.7-.86s1.08-.88,1.7-1.39c0,.2,0,.32,0,.37A10.49,10.49,0,0,1,194,66.58a3.79,3.79,0,0,1-1.48.33c-1,0-1.35-.63-.83-1.47a9.71,9.71,0,0,1,1.45-1.64,9.85,9.85,0,0,0,1.35-1.43h-1.67Z"/><path class="cls-1" d="M119.42,62.37a8.52,8.52,0,0,1,1.76-.53c1-.09,1.37.54.85,1.39-.38.62-.9,1.16-1.3,1.77-.21.31-.5.93-.42,1,.38.32.71-.12,1.05-.28a4.91,4.91,0,0,0,.47-.28l.23.22c-.52.33-1,.7-1.58,1a2,2,0,0,1-1,.26,2.05,2.05,0,0,1-1.17-.44c-.39-.37-.07-.85.17-1.2.51-.72,1.08-1.4,1.61-2.1a2.74,2.74,0,0,0,.25-.55h-.63Z"/><path class="cls-1" d="M175.31,62.55h-.52v-.39a7.41,7.41,0,0,1,1.6-.3c.7,0,1,.53.65,1.15a15.76,15.76,0,0,1-1.12,1.63l-1,1.4c1,.22,1.43-.52,2.07-.81l.22.22c-.71.44-1.4.9-2.12,1.32a1.5,1.5,0,0,1-.63.15c-.48,0-1,.05-1.29-.4a1.07,1.07,0,0,1,.2-1.31c.62-.81,1.28-1.6,1.92-2.4Z"/><path class="cls-1" d="M169.83,62.71l-1.23.76-.23-.22c.57-.39,1.12-.81,1.71-1.16a2.2,2.2,0,0,1,.93-.26c.84-.06,1.25.49.87,1.24a17.75,17.75,0,0,1-1.13,1.73c-.31.19-.6.39-.07.67a9.78,9.78,0,0,1-1.07.93,3,3,0,0,1-1.09.42,2.22,2.22,0,0,1-.79-.16,2.73,2.73,0,0,1,.23-.7c.68-1,1.39-2,2.08-3.06l.06-.26Z"/><path class="cls-1" d="M119.42,62.37l.25.23-3.47,2.54-.23-.25.12-.35,0,0c.3,0,.53-.08.45-.46h0a4.47,4.47,0,0,0,.73-.3C118,63.34,118.69,62.85,119.42,62.37Z"/><path class="cls-1" d="M174.79,62.15v.39l-3.44,2.38-.19-.23A11,11,0,0,1,174.79,62.15Z"/><path class="cls-1" d="M168.37,63.25l.23.22a11.68,11.68,0,0,1-2.91,2.17l-.24-.22Z"/><path class="cls-1" d="M177.22,65.44l-.22-.22a8,8,0,0,1,2.42-1.79c.22.41.17.72-.3.9l-.35.24,0,0-.23.24h0C177.94,64.61,177.71,65.3,177.22,65.44Z"/><path class="cls-1" d="M106.56,55.24l0-.34c.62,0,1.24-.11,1.85-.07a1.48,1.48,0,0,1,1.32.83,14,14,0,0,0-1.62-.41A11.88,11.88,0,0,0,106.56,55.24Z"/><path class="cls-1" d="M192.48,62.32l.37,0-1.67,1.54-.37,0Z"/><path class="cls-1" d="M93.29,57.3v.35l-1.44,1C91.87,58,92.2,57.7,93.29,57.3Z"/><path class="cls-1" d="M189.17,65.65l-.24-.23,1.36-1.06v.32Z"/><path class="cls-1" d="M122.06,65.65l-.23-.22,1.34-1.1,0,.36Z"/><path class="cls-1" d="M183,62.3l0-.44c.4,0,.81,0,1.2.05a1.71,1.71,0,0,1,.5.24,2,2,0,0,1-.55.19C183.77,62.36,183.37,62.32,183,62.3Z"/><path class="cls-1" d="M128,62.31l.16-.38c.53.08,1.13-.3,1.59.23l-1.65.17Z"/><path class="cls-1" d="M126.94,66.1l-.25-.24,1.15-.84.23.23Z"/><path class="cls-1" d="M95.7,54.77l-.21-.31,1.56,0v.32Z"/><path class="cls-1" d="M170.67,65.47c-.53-.28-.24-.48.07-.67l.42-.11.19.23Z"/><path class="cls-1" d="M115.72,65.47q-.55-.25,0-.48l.25-.09.23.25Z"/><path class="cls-1" d="M190.82,63.88l.37,0a1.37,1.37,0,0,1-.28.31,1.46,1.46,0,0,1-.46.13s-.09-.15-.08-.16S190.66,64,190.82,63.88Z"/><path class="cls-1" d="M139.1,63.67a1.07,1.07,0,0,1,.15.4c0,.07-.2.12-.31.18l0-.42Z"/><path class="cls-1" d="M124.12,64.19c.25.08.25.11,0,.37Z"/><path class="cls-1" d="M144.54,60.49l-.22.19-.19-.21.24-.19Z"/><path class="cls-1" d="M175.31,62.55l0,.25Z"/><path class="cls-1" d="M190.3,64.69v-.32l.22.07Z"/><path class="cls-1" d="M123.19,64.69l0-.36a.47.47,0,0,1,.14-.09l.18.26Z"/><path class="cls-2" d="M27.43,13.59c0,.09.05.17.08.26.21.58.69,1.12-.16,1.69a1.45,1.45,0,0,0-.49,1.29c0,.32-.37.7-.6,1.08a3.45,3.45,0,0,1,.44.29c1,.79,1,.87-.06,1.44a37.16,37.16,0,0,0-9.58,7.43,36.29,36.29,0,0,0-7.53,11.3,7,7,0,0,0,.5,5.9,16.88,16.88,0,0,0,1.62,2.66c.77,1,1.42.92,2.11-.15a3,3,0,0,0-.12-3.73c-2.24-3.26-2.16-3.27-.44-6.66A34.16,34.16,0,0,1,19.17,28C20,27,21,26.21,21.91,25.34c.23-.22.39-.5.62-.72s.34-1,1-.43a7.65,7.65,0,0,0,.63-.84c.24-.41.42-.77,1-.51.18.08.5-.1.72-.22a6.59,6.59,0,0,0,1-.68c.63-.52,1.13.21,1.72.18.19,0,.18.43-.06.76a2.22,2.22,0,0,0,.51,2.61,1.43,1.43,0,0,0-.11.37,3.77,3.77,0,0,0,.06.55,4.31,4.31,0,0,1,.37-.27c.14-.08.29-.14.44-.21.18.72-.39,1.57.37,2.19l0,0a3,3,0,0,0-.08.93c.1.41.09.68-.33.88,0,0,.09.6.16.6.84.06.55.47.32.89a2.71,2.71,0,0,0-.33.84c0,.2.34.52-.23.45-.31,0-.59,0-.6-.49,0-.9-.11-1.8-.18-2.7a5.29,5.29,0,0,0-.17-.67,26.29,26.29,0,0,0-.9,4.71c0,.86,0,1.36-.85,1.62-.5.16-.64,0-.54-.53q.27-1.47.52-2.95a3.58,3.58,0,0,0,0-.55A1.12,1.12,0,0,0,26.42,30c-.5-.25-.87,0-1.24.3a5.88,5.88,0,0,0-2.34,4.43q0,.41-.05.82a3.74,3.74,0,0,1-1.48,3A13.09,13.09,0,0,0,19.1,41a3,3,0,0,0-.71,2.16,1.4,1.4,0,0,0,1.3,1.45c.85.17,1.06.35.91,1.17a23.67,23.67,0,0,1-1.7,6.14,4.45,4.45,0,0,1-.76.95c-.91,1-1.81,2-2.74,3A6.09,6.09,0,0,0,14,59.28a1.35,1.35,0,0,0,.88,1.49,11.92,11.92,0,0,1,1.55.8.81.81,0,0,1,.17.66,18.71,18.71,0,0,0-.37,2.4,1.68,1.68,0,0,0,.68,1.21c.53.34,1-.08,1.41-.5a6.14,6.14,0,0,0,1.41-3.2A7.58,7.58,0,0,0,20,60.81c0-1.18.73-1.61,1.74-1.87,2.1-.53,4.19-1.12,6.43-1.72-.1.26-.13.57-.27.65-.56.32-.3.66-.24,1.12s.06.7.49.87c.14.05.24.21.36.31-.14.09-.27.26-.41.26-.88,0-.94.5-.84,1.16s.18,1.06.24,1.59a1,1,0,0,1-.08.52c-.22.49-.23.47.38.74.08,0,.09.22.13.33-1,.1-1,.87-1,1.6a3.55,3.55,0,0,1-.25.92.71.71,0,0,1-1.05.5,4,4,0,0,0-1.43-.06c-1.31.07-2.62.15-3.92.28-.9.09-1.8.26-2.7.4l-.59.08c-.22,0-.57,0-.63.08-.24.4-.46.57-.8.15s-.65-.29-.9,0a1.39,1.39,0,0,1-1.24.4c-1.36,0-2.73,0-4.09.06-.68,0-1.39.06-1.6-.87,0-.16-.36-.25-.54-.38a3.12,3.12,0,0,1-.43-.33.28.28,0,0,1-.06-.25c.5-.72-.68-1.21-.24-2a7.78,7.78,0,0,0,.47-1.27c.17-.46.46-.35.72-.11.44.42.85.86,1.37,1.39a1.52,1.52,0,0,1,.16-.53c.4-.48-.48-.88,0-1.45A2.23,2.23,0,0,0,9.3,62a6.93,6.93,0,0,0-.5-1.57s-.3.07-.41,0a2.45,2.45,0,0,1-.84-.5c-.36-.41,1-.37.3-.89s.16-.87-.07-1.16c-.6-.77,0-1.31.27-1.92l-.14-.33-.2.35c-.46,0-.28-.3-.25-.56a3.11,3.11,0,0,0,0-1.3,3.25,3.25,0,0,1,.93-3.59c-1,.17-1-.71-1.23-1.14a3,3,0,0,1,.09-1.9c.09-.32.24-.53,0-.82-.08-.1-.18-.28-.14-.36.88-1.69-.37-3.43.11-5.12-.5-1.55,0-3.08,0-4.62a4.62,4.62,0,0,0,0-2.1c-.65-1.44.3-2.85-.06-4.27-.05-.21.16-.49.27-.73a5.38,5.38,0,0,0,.16-3.06c0-.28-.64-.42-.47-1,.11-.37.07-.64.55-.39,0,0,.26-.27.25-.39,0-.45-.19-.89-.23-1.34s.88-1,.34-1.74c0,0,.31-.26.46-.42a1.79,1.79,0,0,0,.29-2.23c-.31-.67-.89-1.35-.09-2.13.26-.26,0-.48-.33-.51s-1,.31-1.24-.42c-.11-.3-.27-.49-.11-.85a1.38,1.38,0,0,0,.13-1c-.38-.66.61-.92.34-1.5a.85.85,0,0,1,.4-.23,5.34,5.34,0,0,1,1.09,0c.3,0,.61.26.89.22s.3-.45.52-.56a2.86,2.86,0,0,1,.92-.17c.77-.09.78-.08,1-.92,0-.17.08-.35.11-.53l.59-.08.42-.52-.51-.24,0,0c0-.28-.08-.63.33-.54.8.16,1.58.39,2.36.61a.57.57,0,0,1,.32.27c.3.62.49,1.32,1.46.83.19-.09.57.19.85.32.52.24.8.12.72-.48-.06-.44.14-.48.53-.5a4.84,4.84,0,0,0,1.3-.32c.2-.07.36-.13.32.14-.06.43.08.56.5.49s.57.32.53.7c-.08.74-.09.74.37,1.06.12.28.17.68.38.82s.56-.06.84-.14a1.77,1.77,0,0,0,.39-.22,1.52,1.52,0,0,0-.37-.28c-.87-.29-.88-.39-.22-1.08a2.76,2.76,0,0,0,.37-.75c.59,0,1.16.32,1.78.07.19-.08.47.06.71.11a4.78,4.78,0,0,0-.27.59,2.73,2.73,0,0,0-.06.53l0,0c-.45.7-.43,1,.15,1.68C26.63,13.49,26.9,14.15,27.43,13.59Zm-2.54-2.13-1.42-.08C24.07,11.81,24.43,12.16,24.89,11.46Zm1.63,4.77-.3-.34-.42.44c.08.08.2.23.24.22A2.68,2.68,0,0,0,26.52,16.23Zm-5.81-5.89s-.06.07,0,.08a.42.42,0,0,0,.09.09l.06-.17Z"/><path class="cls-3" d="M46.37,22.34c.34-.08.68-.18,1-.24.1,0,.22.09.33.14-.07.11-.11.26-.21.32a2.4,2.4,0,0,1-.5.18c.15.06.35.08.43.19a11.11,11.11,0,0,1,.8,1.24c0,.06-.13.31-.24.34-.54.19-1.1.31-1.64.5-.18.06-.31.27-.46.41a4.57,4.57,0,0,0,.57.1c.08,0,.15-.1.24-.12.38-.11.92-.4.54.45,0,.11.24.33.3.52a.86.86,0,0,1-.22,1.07c-.46.36-.91.75-1.46,1.2a2.84,2.84,0,0,0-.1-.47,4.72,4.72,0,0,0-.26-.49l-.65.43a2.31,2.31,0,0,1,.39.27.46.46,0,0,1,.09.28,3.34,3.34,0,0,1-.46.17,1.34,1.34,0,0,1,.38.13c.2.15.35.38.57.49.42.21.42.36.06.66a1,1,0,0,0-.35.75,1.37,1.37,0,0,1-.17,1.32c-.26.34-.06.66.48.66.19,0,.41.23.55.41a2.1,2.1,0,0,1,.22.6c-.23,0-.46,0-.69,0a4.28,4.28,0,0,0-.51.09c0,.2,0,.46.14.59s.92.21.39.81l1.11.38a5.41,5.41,0,0,0-.83.1,1.34,1.34,0,0,0-.36.27c.09.09.17.24.26.25.57,0,.85.33.76.89s-.17,1-.83,1.08c-.35,0-.59.16-.44.46s.48.42.73.63c.16-.39.34-.16.46,0a1.78,1.78,0,0,1,.34.74c.05.55-.2,1.26.06,1.63a1.41,1.41,0,0,1,0,1.57,2.84,2.84,0,0,0,0,1.07c0,.53,0,1.07.11,1.6,0,.25.32.48.3.7a4.11,4.11,0,0,1-.35.87.37.37,0,0,0,.13.3c.49.37,1,.69,1.47,1.08.08.06,0,.36-.07.55l-.27.28a1.17,1.17,0,0,0-.38,0,1.38,1.38,0,0,0-.34.22,1.45,1.45,0,0,0,.46,0c.1,0,.17-.16.25-.25l.27-.28c.63.3.73.76.25,1.21-.28.26-.26.49,0,.46.59-.06.51.22.54.62s-.3,1,.31,1.3v0a13.12,13.12,0,0,0,0,2.62,1.27,1.27,0,0,1-.29,1.1c-.67.48.6.87,0,1.18a10.72,10.72,0,0,1-1.25.3c-.15.06-.22.34-.5.82-.06-.58-.11-.86-.12-1.13s0-.63,0-1l.79.19.2.1-.21-.09A8.85,8.85,0,0,1,47.86,56c-.16-.38.07-.93-.52-1.14-.08,0-.09-.27-.13-.42-.1.12-.29.26-.28.36.19,1.34-.3,2.71.23,4,.06.14,0,.47-.06.49-.91.25-.44,1-.44,1.44,0,1,.21,2,.19,3,0,1.25-.18,2.51-.29,3.76-.4-.31-1-.47-1-1.23,0-.37-.27-.42-.57-.36s-.58,0-.38.46c0,.09-.16.3-.28.43s-.32.11-.32.13c.16,1.12-.69.94-1.28.93-1.32,0-2.63-.14-3.94-.24-.2,0-.51-.12-.56-.26-.33-.92-1.13-.85-1.8-.8A1.38,1.38,0,0,1,35,65.64a11.36,11.36,0,0,1-1.2-4.72,6.67,6.67,0,0,0-.05-1.09c0-.17-.36-.45-.42-.42-.94.5-1.74-.18-2.6-.25-.21,0-.43.15-.64.24.12.1.31.17.36.29a3,3,0,0,1,.22,1.21c-.47-.42-1.44-.34-1.21-1.34,0,0-.32-.12-.4-.24s-.23-.47-.16-.58A7.78,7.78,0,0,1,30,57.47c.4-.35.71-.57-.13-.64,0,0-.09-.41,0-.49a.85.85,0,0,1,.61-.25c.54.08.82-.09.93-.63a.65.65,0,0,1,.38-.38c2.2-.83,3.68-2.61,5.37-4.1a13.43,13.43,0,0,0,4.14-7.34,8.27,8.27,0,0,0-.12-3.77,1.33,1.33,0,0,0-.29-.61c-1.16-1.19-2-2.75-3.69-3.32a3.38,3.38,0,0,1-.37-.18c-.4-.19-.46-.48-.12-.73a21.88,21.88,0,0,0,5.5-6.36A15.13,15.13,0,0,0,44.68,22a8.65,8.65,0,0,0-.2-2.15c-.07-.4-.37-.76-.39-1.15-.06-1.06-.87-1.17-1.59-1.6-2.33-1.39-4.72-1-7.14-.53A10.86,10.86,0,0,1,34,16.8c-.81,0-1.23-.45-1.1-1.27s-.22-1.55.42-2.19c0,0,0-.25-.07-.33a1.51,1.51,0,0,1-.25-1.6c.39-.77.29-.93-.58-.9-.54,0-1.09.08-1.63.13L31,10c.55,0,1.09,0,1.64-.05s.9-.09.65-.79c-.06-.18.14-.52.32-.7a2.87,2.87,0,0,1,.75-.4c0,.24,0,.48,0,.72s0,.35,0,.62a14.52,14.52,0,0,0,3.79-.83c1.12-.58,2.3-.25,3.36-.73.1,0,.26,0,.43.08-.2.71-.79.81-1.35,1s-.82.32-1.24.4A17.3,17.3,0,0,1,37,9.7a6.57,6.57,0,0,0-2.8,1c.92.17,1.56.33,2.22.39.39,0,1,.24,1-.55,0-.06.12-.19.15-.18,1.46.45,3-.35,4.4.07a1.09,1.09,0,0,0,1.39-.5c.17-.27.24-.55.69-.16s1,.24,1-.47,0-1.17,0-1.75l0,0c.11-.11.29-.2.31-.32.1-.7.16-1.41.24-2.25.65.37,1.5.2,1.4,1.25,0,.16.42.37.84.71-1-.08-1.38.39-1.41,1.15,0,.17,0,.44.12.49,1.23.55.57,1.69.8,2.54.09.32.1.66.17,1s.15.59.22.89c.12.52.25,1,.36,1.57a6.41,6.41,0,0,1,.21,1.29c0,.42-.25.84.25,1.18a.67.67,0,0,1-.09.57c-.51.23-.23-.37-.28-.36-.41.09-.48-1-1-.29a7.27,7.27,0,0,0-.45.76,2.89,2.89,0,0,0,.81.23c.5,0,.8.24.48.61a1.1,1.1,0,0,0-.09,1.37c.14.33.17.69-.24.78-.92.2-1,1-1.24,1.65l-.1.07s0,0,0,.07ZM46.1,24a.52.52,0,0,0,0-.1s0,0-.07,0l.13.12c.11.12.25.35.34.33a5.22,5.22,0,0,0,.91-.32.42.42,0,0,0,0-.11l-.85.1Zm0-7.72c0-.09,0-.2,0-.27a2.21,2.21,0,0,0-.42-.55s-.27.14-.41.22a3.79,3.79,0,0,0,.36.62c.07.08.25,0,.39.07l.34.51c.37-.31,1.06-.39,1-1a23,23,0,0,0-.33-2.54c0-.09-.19-.15-.28-.23-.05.1-.15.2-.16.3-.05.92-.09,1.84-.15,2.77C46.5,16.22,46.27,16.25,46.15,16.29Zm.4,3.41c.06.08.07.14.11.15l.7.17a1.06,1.06,0,0,0,0-.24,5.8,5.8,0,0,0-.61-.14S46.68,19.66,46.54,19.7Zm-.27,7.58.28-.08a.81.81,0,0,0-.14-.28s-.17,0-.25.07Zm2.54,24.26-.09-.1s-.08.06-.09.1.05.07.08.1Z"/><path class="cls-3" d="M32.52,19.16c.4-.11.82-.11,1.06-.32.41-.36.63-.11,1,0a13.87,13.87,0,0,0,2.55.21c.27,0,.66-.43.83.19,0,.07.42.06.63,0A4.73,4.73,0,0,0,39.78,19c.37-.16.59-.15.65.28.11.7.62,1,1.34,1.51,0-.57,0-1,0-1.33a3.81,3.81,0,0,1,.14-.62c.16,0,.41,0,.46.12.13.25.31.74.23.79-.86.6-.36,1.26-.14,1.91.13.39.19.79.33,1.17.66,1.74-.15,3.21-.94,4.62a27.37,27.37,0,0,1-5.92,7.09.92.92,0,0,1-1.08.26,12.65,12.65,0,0,0-2.11-.47,1.35,1.35,0,0,1-1.25-1.31,6.55,6.55,0,0,1,.23-2.12c.12-.4.62-.68,0-1.09,0,0,.3-.54.32-.84s-.18-.59-.17-.89c0-.14.3-.25.44-.4a.57.57,0,0,0-.23-.29,1.43,1.43,0,0,0-.47,0,2,2,0,0,1,.28-.3c.22-.16.19-.16.32-.58.09-.27.66-.51-.05-.73-.06,0,0-.41,0-.62s.21-.68.13-.74c-.67-.45-.43-.64.17-.79-.32-.64.6-1,.3-1.73a2,2,0,0,1,0-1.31C33,19.85,33.1,19.87,32.52,19.16Z"/><path class="cls-3" d="M29.94,54.71a2.06,2.06,0,0,1,.21-.45c.13-.16.42-.27.42-.41a.44.44,0,0,0-.48-.5c-.88,0,.58-.68-.19-.81-.06,0-.08-.3-.12-.45a1.35,1.35,0,0,1,.47.08c.38.23.51.05.47-.29a5.64,5.64,0,0,1,.35-2.59,3.71,3.71,0,0,0,.22-1.16c.07-.84-.28-1.74.4-2.49,0,0,0-.28,0-.28-1,0-.37-.54-.33-.89.08-.71.11-1.43.25-2.13.07-.36.39-.67.47-1a4.84,4.84,0,0,0-.07-1c0-.26.13-.55.07-.79-.11-.42-.23-.84.18-1.12a3.22,3.22,0,0,1,1.43-.71c1.54-.07,3.07.06,4.05,1.53,1.31.36,1.44,1.65,1.68,2.59a7.91,7.91,0,0,1-.1,3.49A9.86,9.86,0,0,1,36,50.38c-1.62,1.46-3.42,2.72-5.16,4a2.83,2.83,0,0,1-.89.28Zm.86-1.6.07.21.86-.3-.08-.22Z"/><path class="cls-2" d="M28.57,49.26a.77.77,0,0,0-.09.43,3.2,3.2,0,0,1-1,2.93c-.28.32-.37.54,0,.91A11.36,11.36,0,0,1,28.37,55c.19.31.19.76-.16.74-.55,0-.71.44-1,.55-1.16.38-2.35.64-3.54.93-.74.19-1.48.38-2.22.53-.44.09-.56-.18-.48-.56.13-.62.28-1.24.4-1.86a1.84,1.84,0,0,1,.79-1.21c1.32-.95,2.61-1.94,3.92-2.92Z"/><path class="cls-2" d="M28.27,45.37l-.74-.06-.27-.09.09.27c.1,1.78.1,1.77-1.48,2.4-1,.38-1.91.8-3.11,1.3l1.84-7a.82.82,0,0,1,.73-.69,9.06,9.06,0,0,0,1-.29c1-.27,1.07-.22,1.22.82,0,.09,0,.28-.05.28-.4,0-.48.29-.3.55s.34.68.8.42c.64-.35.65.35.85.58s-.28.31-.37.48a4,4,0,0,0-.25,1Z"/><path class="cls-2" d="M31,10l-.18.62c0,.29.21.7-.33.75h-.13c-.16-.21-.28-.56-.48-.62a3.91,3.91,0,0,1-1.6-1.16c-.35-.32-.3-.47,0-.71C29.46,7.86,30.58,8.32,31,10Z"/><path class="cls-2" d="M25.59,7.54c-.24-.55-.79-1.1,0-1.63.06,0,.11-.25.08-.28-.44-.39-.19-.85-.13-1.28a2.37,2.37,0,0,1,.28-.61c.16.2.46.41.45.6,0,.48.42.89,0,1.47C26,6.22,26.1,7,26,7.54Z"/><path class="cls-3" d="M50,53.07l.57-1.92c.4.92,1,1.65.72,2.64a2.22,2.22,0,0,1-.44.6,5.13,5.13,0,0,1-.58-.63c-.14-.21.29-.66-.29-.71Z"/><path class="cls-3" d="M50.12,65.91a12.45,12.45,0,0,1-1.44-1.61c-.11-.18.16-.66.36-.94a.6.6,0,0,1,.59-.08,1.17,1.17,0,0,1,.27.66C50,64.5,50,65.07,50.12,65.91Z"/><path class="cls-3" d="M23.92,10.39a2.76,2.76,0,0,1-.37.75c-.67.69-.65.78.22,1.08a1.52,1.52,0,0,1,.37.28,1.77,1.77,0,0,1-.39.22c-.28.08-.66.26-.84.14s-.26-.53-.38-.82c.52-.23.18-.58.14-.89-.09-.77-.07-.78.73-.75C23.58,10.4,23.75,10.39,23.92,10.39Z"/><path class="cls-3" d="M25.59,7.54H26c0,.58.09,1.17.07,1.75,0,.23-.2.45-.31.67l-.55-.35c-.63-.39-.9-.72,0-1.13C25.47,8.4,25.49,7.87,25.59,7.54Z"/><path class="cls-3" d="M45,7.54c-.58.13-1.25.06-1.5.84,0,.13-.56.14-.86.13-.12,0-.33-.23-.32-.32a.74.74,0,0,1,.3-.52c.57-.23,1.17-.38,1.75-.58s.53.14.61.47Z"/><path class="cls-3" d="M28.28,45.37c.73.12,1,.52.75,1.23-.13.38-.23.77-.34,1.16-.75-.18-.69-.71-.58-1.28.07-.37.11-.74.17-1.12Z"/><path class="cls-3" d="M27.43,13.59c-.53.56-.8-.1-1.18-.26l-.19-1A1.78,1.78,0,0,1,27.43,13.59Z"/><path class="cls-3" d="M29.85,25.94c-.15.07-.3.13-.44.21a4.31,4.31,0,0,0-.37.27,3.77,3.77,0,0,1-.06-.55,1.43,1.43,0,0,1,.11-.37s.12,0,.12,0c.06-.26.11-.53.16-.8.14.3.3.59.43.9A1.46,1.46,0,0,1,29.85,25.94Z"/><path class="cls-2" d="M28.76,40.87,29,42.71C28.37,41.86,28.37,41.86,28.76,40.87Z"/><path class="cls-3" d="M17,68.48l.59-.08.34,1c-.59.15-.55-.43-.78-.69A1.5,1.5,0,0,1,17,68.48Z"/><path class="cls-3" d="M30.21,28.13c0-.13,0-.27,0-.4s.09-.41.13-.61c.08,0,.21.06.22.1a1.36,1.36,0,0,1,0,.64c0,.12-.29.17-.45.25Z"/><path class="cls-3" d="M48.64,6.2c.09.18.23.34.19.39a1.7,1.7,0,0,1-.38.32c-.08-.12-.26-.29-.23-.35S48.46,6.34,48.64,6.2Z"/><path class="cls-3" d="M48.57,21.52c-.4.18-.56.33-.67.29a3.19,3.19,0,0,1-.65-.37,1.76,1.76,0,0,1,.54-.2A3.08,3.08,0,0,1,48.57,21.52Z"/><path class="cls-3" d="M30.41,33.42c-.27.24-.39.42-.49.41a1.71,1.71,0,0,1-.51-.26,2.15,2.15,0,0,1,.45-.28C30,33.26,30.1,33.34,30.41,33.42Z"/><path class="cls-3" d="M30.36,11.39h.13a.69.69,0,0,1-.08.24,6,6,0,0,1-.49.49L29.76,12c.16-.19.32-.37.49-.55A.36.36,0,0,1,30.36,11.39Z"/><path class="cls-3" d="M46.82,28.35c.19.46.33.63.3.75a2,2,0,0,1-.34.53c-.06-.09-.18-.19-.17-.28A9,9,0,0,1,46.82,28.35Z"/><path class="cls-3" d="M21.27,7.63l.39.57c-.07,0-.18.1-.21.08S21.14,8,21,7.78Z"/><path class="cls-3" d="M31.88,61.19c-.12-.21-.25-.35-.22-.42a.63.63,0,0,1,.31-.3s.26.16.25.22S32.07,60.93,31.88,61.19Z"/><path class="cls-3" d="M27,39.27l.31.24c-.22.12-.44.25-.66.35-.05,0-.15-.06-.22-.1Z"/><path class="cls-3" d="M28.43,64l-.31-.11c.1-.18.2-.37.33-.54a2.48,2.48,0,0,1,.28.15Z"/><path class="cls-3" d="M13,10.22l-.59.08c-.15-.47,0-.77.51-.82l0,0Z"/><path class="cls-3" d="M35.59,7.6,35,8.06c0-.11-.16-.3-.13-.32a5.85,5.85,0,0,1,.61-.4Z"/><path class="cls-3" d="M29.75,34.4a2.94,2.94,0,0,1-.55.24c-.07,0-.16-.11-.24-.17a2,2,0,0,1,.39-.32C29.41,34.13,29.53,34.27,29.75,34.4Z"/><path class="cls-3" d="M11.53,10.84l-.26.32a1.06,1.06,0,0,1-.22-.32c0-.06.14-.23.19-.22S11.42,10.75,11.53,10.84Z"/><path class="cls-3" d="M8.11,62.66c.2-.14.28-.25.36-.25s.27.08.29.16-.09.3-.13.3A2.23,2.23,0,0,1,8.11,62.66Z"/><path class="cls-2" d="M26.3,11.57l.85.13,0,.2h-.75Z"/><path class="cls-3" d="M46.93,30.36l-.28.18c0-.09-.12-.22-.09-.26a1,1,0,0,1,.3-.19Z"/><path class="cls-3" d="M7.71,56l.2-.35L8,56Z"/><path class="cls-3" d="M29.93,54.7l-.14.2.15-.19Z"/><path class="cls-3" d="M26.08,40s-.07.07-.11.06-.06,0-.1-.08S25.95,40,26,40,26,40,26.08,40Z"/><path class="cls-3" d="M26.3,11.57l.07.34-.27-.25,0,0A.37.37,0,0,1,26.3,11.57Z"/><path class="cls-4" d="M7.56,81c0-2.49,0-2.95,0-3.47s-.16-.82-.7-.93a3.42,3.42,0,0,0-.64,0c-.18,0-.28,0-.28-.15s.11-.15.36-.15c.87,0,1.9,0,2.25,0,.56,0,1.8,0,2.31,0a5.24,5.24,0,0,1,3,.7,2.84,2.84,0,0,1,1.11,2.25c0,1.21-.51,2.33-2.16,3.67,1.46,1.84,2.59,3.29,3.56,4.31a3.26,3.26,0,0,0,1.84,1.11,2.63,2.63,0,0,0,.46,0c.13,0,.2,0,.2.13s-.11.16-.31.16H17a3.33,3.33,0,0,1-1.75-.31A7.89,7.89,0,0,1,13,85.93c-.66-.9-1.41-2-1.62-2.26a.34.34,0,0,0-.29-.12l-1.43,0c-.08,0-.13,0-.13.13v.23c0,1.52,0,2.82.08,3.51,0,.48.15.84.64.9a7.43,7.43,0,0,0,.8.07c.13,0,.2,0,.2.13s-.11.16-.33.16c-1,0-2.16,0-2.41,0s-1.34,0-2,0c-.21,0-.33,0-.33-.16s.07-.13.26-.13A2.65,2.65,0,0,0,7,88.29c.33-.07.41-.43.48-.9.08-.69.08-2,.08-3.49Zm1.93,1.29c0,.18,0,.25.15.29a4.3,4.3,0,0,0,1.25.16A1.64,1.64,0,0,0,12,82.49,2.89,2.89,0,0,0,13,80c0-2.33-1.54-3-2.51-3a3.55,3.55,0,0,0-.87.07c-.11,0-.15.1-.15.23Z"/><path class="cls-4" d="M17.08,82.45c0-2.8,1.85-6.42,6.77-6.42,4.08,0,6.62,2.38,6.62,6.13a6.48,6.48,0,0,1-6.78,6.72A6.24,6.24,0,0,1,17.08,82.45Zm11.09.31c0-3.67-2.11-5.95-4.8-5.95-1.88,0-4,1-4,5.13,0,3.41,1.88,6.11,5,6.11C25.52,88.06,28.18,87.5,28.18,82.77Z"/><path class="cls-4" d="M32.26,81c0-2.49,0-2.95,0-3.47s-.16-.82-.7-.93a3.42,3.42,0,0,0-.64,0c-.18,0-.28,0-.28-.15s.11-.15.36-.15c.87,0,1.9,0,2.23,0,.8,0,1.44,0,2,0,3,0,3.49,1.59,3.49,2.46A3.57,3.57,0,0,1,37,81.59c1.34.46,3,1.62,3,3.54,0,1.75-1.36,3.57-4.38,3.57l-1.15,0c-.49,0-1,0-1.23,0l-.93,0c-.38,0-.8,0-1.13,0s-.33,0-.33-.16.07-.13.26-.13a2.65,2.65,0,0,0,.59-.07c.33-.07.41-.43.48-.9.08-.69.08-2,.08-3.49Zm2,.28c0,.13,0,.16.11.18a4,4,0,0,0,.77,0,1.67,1.67,0,0,0,1.18-.31A2.14,2.14,0,0,0,37,79.47c0-1.1-.64-2.54-2-2.54a2.69,2.69,0,0,0-.54,0c-.11,0-.15.1-.15.28Zm2.16,1.31A2.36,2.36,0,0,0,35,82.21l-.7,0c-.07,0-.1,0-.1.11v3.88c0,1.08,0,1.36.57,1.57A3,3,0,0,0,36,88a1.91,1.91,0,0,0,2-2.1A3.9,3.9,0,0,0,36.39,82.6Z"/><path class="cls-4" d="M42.21,81c0-2.49,0-2.95,0-3.47s-.16-.82-.7-.93a3.42,3.42,0,0,0-.64,0c-.18,0-.28,0-.28-.15s.11-.15.36-.15l1.33,0,1,0c.52,0,3.79,0,4.1,0a6.6,6.6,0,0,0,.71-.1,1.51,1.51,0,0,1,.26-.07c.08,0,.1.07.1.15a10.36,10.36,0,0,0-.13,1.06c0,.16,0,.88-.08,1.08s0,.18-.16.18-.15-.08-.15-.23a1.77,1.77,0,0,0-.1-.59c-.11-.29-.28-.49-1.1-.59-.28,0-2-.07-2.33-.07-.08,0-.11,0-.11.16v4.15c0,.11,0,.18.11.18.36,0,2.25,0,2.62,0s.64-.08.79-.25.18-.21.26-.21.11,0,.11.13-.07.36-.13,1.2c0,.33-.07,1-.07,1.1s0,.31-.15.31a.13.13,0,0,1-.15-.15,4.24,4.24,0,0,0-.07-.59c-.08-.33-.31-.57-.92-.64-.31,0-1.93,0-2.33,0-.08,0-.1.07-.1.16V83.9c0,.56,0,2.06,0,2.54,0,1.13.29,1.38,2,1.38a4.15,4.15,0,0,0,1.54-.2c.43-.2.62-.54.74-1.21,0-.18.07-.25.18-.25s.13.13.13.29a12.81,12.81,0,0,1-.21,1.82c-.11.43-.26.43-.88.43-1.23,0-2.13,0-2.84,0s-1.21,0-1.7,0l-.93,0c-.38,0-.8,0-1.13,0s-.33,0-.33-.16.07-.13.26-.13a2.65,2.65,0,0,0,.59-.07c.33-.07.41-.43.48-.9.08-.69.08-2,.08-3.49Z"/><path class="cls-4" d="M51.59,81c0-2.49,0-2.95,0-3.47s-.16-.82-.7-.93a3.42,3.42,0,0,0-.64,0c-.18,0-.28,0-.28-.15s.11-.15.36-.15c.87,0,1.9,0,2.25,0,.56,0,1.8,0,2.31,0a5.24,5.24,0,0,1,3,.7A2.84,2.84,0,0,1,59,79.21c0,1.21-.51,2.33-2.16,3.67,1.46,1.84,2.59,3.29,3.56,4.31a3.26,3.26,0,0,0,1.84,1.11,2.63,2.63,0,0,0,.46,0c.13,0,.2,0,.2.13s-.11.16-.31.16H61a3.33,3.33,0,0,1-1.75-.31A7.89,7.89,0,0,1,57,85.93c-.66-.9-1.41-2-1.62-2.26a.34.34,0,0,0-.29-.12l-1.43,0c-.08,0-.13,0-.13.13v.23c0,1.52,0,2.82.08,3.51,0,.48.15.84.64.9a7.43,7.43,0,0,0,.8.07c.13,0,.2,0,.2.13s-.11.16-.33.16c-1,0-2.16,0-2.41,0s-1.34,0-2,0c-.21,0-.33,0-.33-.16s.07-.13.26-.13a2.65,2.65,0,0,0,.59-.07c.33-.07.41-.43.48-.9.08-.69.08-2,.08-3.49Zm1.93,1.29c0,.18,0,.25.15.29a4.3,4.3,0,0,0,1.25.16,1.64,1.64,0,0,0,1.16-.28A2.89,2.89,0,0,0,57,80c0-2.33-1.54-3-2.51-3a3.55,3.55,0,0,0-.87.07c-.11,0-.15.1-.15.23Z"/><path class="cls-4" d="M64.87,77.18l-2.44.07c-1,0-1.34.11-1.59.47a1.93,1.93,0,0,0-.28.57c0,.13-.08.2-.18.2s-.15-.08-.15-.26.31-1.75.34-1.88.1-.31.2-.31a3.78,3.78,0,0,0,.71.2c.48,0,1.1.08,1.64.08H69.6a7.78,7.78,0,0,0,1.13-.08,4,4,0,0,1,.44-.08c.11,0,.13.1.13.34s0,1.47,0,1.9c0,.16,0,.26-.15.26s-.16-.08-.18-.33l0-.18c0-.43-.48-.89-1.93-.92l-2.06,0V83.9c0,1.51,0,2.8.08,3.51,0,.46.15.82.64.88a6.82,6.82,0,0,0,.84.07c.18,0,.26,0,.26.13s-.13.16-.31.16c-1.08,0-2.11,0-2.57,0s-1.41,0-2.06,0c-.21,0-.33,0-.33-.16s.07-.13.26-.13a2.65,2.65,0,0,0,.59-.07c.33-.07.43-.43.48-.9.08-.69.08-2,.08-3.49Z"/><path class="cls-4" d="M79.85,76.32c0-.28.15-.43.28-.43s.23.08.44.51L85,85.65l4.46-9.36c.13-.26.21-.39.36-.39s.25.16.29.51l1.49,10.13c.15,1,.31,1.51.8,1.65a3.28,3.28,0,0,0,1,.16c.15,0,.26,0,.26.12s-.2.18-.43.18c-.41,0-2.67,0-3.33-.1-.38,0-.48-.08-.48-.18s.07-.13.18-.18.15-.25.08-.7l-1-7.21h-.07l-3.57,7.44c-.38.77-.46.92-.61.92s-.31-.33-.57-.82c-.39-.75-1.69-3.26-1.88-3.72s-1.13-2.41-1.7-3.64h-.07L79.46,87a6.39,6.39,0,0,0,0,.77c0,.31.21.46.49.52a3.18,3.18,0,0,0,.69.08c.13,0,.25,0,.25.12s-.15.18-.39.18c-.69,0-1.43,0-1.72,0s-1.1,0-1.62,0c-.16,0-.3,0-.3-.18s.1-.12.26-.12a2.12,2.12,0,0,0,.49,0c.46-.1.59-.74.67-1.29Z"/><path class="cls-4" d="M94.38,87.6a1,1,0,0,1,1-1,.94.94,0,0,1,1,1,1,1,0,0,1-1,1A1,1,0,0,1,94.38,87.6Z"/><path class="cls-4" d="M106.87,84.4a3.47,3.47,0,0,0-.38-1.72c-.11-.26-2.31-3.87-2.88-4.72a4,4,0,0,0-1.13-1.2,1.66,1.66,0,0,0-.69-.21c-.13,0-.25,0-.25-.15s.11-.15.31-.15,1.52,0,2.06,0c.34,0,1,0,1.75,0,.16,0,.25,0,.25.15s-.11.11-.36.18a.3.3,0,0,0-.23.29,1.51,1.51,0,0,0,.2.56c.23.49,2.52,4.44,2.79,4.9.16-.39,2.23-4,2.46-4.51A2.13,2.13,0,0,0,111,77a.39.39,0,0,0-.34-.41c-.15,0-.29-.07-.29-.16s.08-.15.28-.15c.54,0,1.06,0,1.54,0s1.44,0,1.75,0,.29,0,.29.13-.13.16-.31.16a1.78,1.78,0,0,0-.72.2,2.44,2.44,0,0,0-.88.8,52.22,52.22,0,0,0-3.13,5.21,3.92,3.92,0,0,0-.25,1.64v1.34c0,.26,0,1,0,1.64,0,.48.18.84.67.9a6.81,6.81,0,0,0,.82.07c.18,0,.26,0,.26.13s-.13.16-.34.16c-1,0-2.06,0-2.51,0s-1.44,0-2,0c-.23,0-.36,0-.36-.16s.08-.13.26-.13a2.61,2.61,0,0,0,.57-.07c.33-.07.48-.43.51-.9,0-.69,0-1.38,0-1.64Z"/><path class="cls-4" d="M113.24,82.45c0-2.8,1.85-6.42,6.77-6.42,4.08,0,6.62,2.38,6.62,6.13a6.48,6.48,0,0,1-6.78,6.72A6.24,6.24,0,0,1,113.24,82.45Zm11.09.31c0-3.67-2.11-5.95-4.8-5.95-1.88,0-4,1-4,5.13,0,3.41,1.88,6.11,5,6.11C121.68,88.06,124.34,87.5,124.34,82.77Z"/><path class="cls-4" d="M128.87,81c0-2.49,0-2.95,0-3.47s-.16-.82-.7-.93a3.42,3.42,0,0,0-.64,0c-.18,0-.28,0-.28-.15s.11-.15.36-.15c.87,0,1.9,0,2.39,0s1.43,0,2,0c.25,0,.36,0,.36.15s-.1.15-.26.15a2.51,2.51,0,0,0-.48,0c-.44.08-.57.36-.61.93s0,1,0,3.47v2.29c0,2.38.48,3.38,1.28,4a3,3,0,0,0,2,.67,3.21,3.21,0,0,0,2.26-.88c.9-.9,1-2.38,1-4.06V81c0-2.49,0-2.95,0-3.47s-.16-.82-.7-.93a3.22,3.22,0,0,0-.59,0c-.18,0-.28,0-.28-.15s.11-.15.34-.15c.84,0,1.87,0,1.88,0,.2,0,1.23,0,1.87,0,.23,0,.34,0,.34.15s-.1.15-.29.15a2.51,2.51,0,0,0-.48,0c-.44.08-.57.36-.61.93s0,1,0,3.47v1.75c0,1.82-.18,3.75-1.56,4.93A4.89,4.89,0,0,1,134,88.88a5.27,5.27,0,0,1-3.64-1.13c-.84-.75-1.46-2-1.46-4.34Z"/><path class="cls-4" d="M143.8,86.42c0,1.28.25,1.7.57,1.82a2.62,2.62,0,0,0,.85.11c.18,0,.28,0,.28.13s-.15.16-.38.16c-1.06,0-1.72,0-2,0-.15,0-.92,0-1.77,0-.21,0-.36,0-.36-.16s.1-.13.26-.13a2.91,2.91,0,0,0,.74-.08c.43-.13.49-.61.51-2l.15-9.7c0-.33,0-.56.21-.56s.33.21.61.51,2.69,2.88,5.08,5.26c1.11,1.12,3.33,3.47,3.6,3.74h.08L152,78.13c0-1-.16-1.31-.56-1.48a2.69,2.69,0,0,0-.87-.1c-.2,0-.26,0-.26-.15s.18-.15.43-.15c.85,0,1.64,0,2,0,.18,0,.8,0,1.61,0,.21,0,.38,0,.38.15s-.1.15-.29.15a1.79,1.79,0,0,0-.49,0c-.46.13-.59.48-.61,1.39l-.18,10.34c0,.36-.07.51-.21.51s-.38-.18-.56-.36c-1-1-3.13-3.13-4.83-4.82s-3.61-3.82-3.9-4.13h0Z"/><path class="cls-4" d="M167.54,87.55c0,.44,0,.48-.21.59a9.27,9.27,0,0,1-3.95.74c-4,0-7.57-1.9-7.57-6.42a6.13,6.13,0,0,1,2.85-5.36A7.93,7.93,0,0,1,163.06,76a19.74,19.74,0,0,1,2.9.26,10.8,10.8,0,0,0,1.29.18c.2,0,.23.08.23.2a22.21,22.21,0,0,0-.11,2.69c0,.26,0,.34-.18.34s-.15-.08-.16-.21a2.3,2.3,0,0,0-.56-1.36,5.24,5.24,0,0,0-3.66-1.28,4.72,4.72,0,0,0-3.24,1,4.88,4.88,0,0,0-1.51,4c0,3.52,2.25,6.16,5.7,6.16a3.64,3.64,0,0,0,1.39-.18.58.58,0,0,0,.31-.61V85.72c0-.82,0-1.44,0-1.93s-.16-.82-.7-.93a3.34,3.34,0,0,0-.64,0c-.15,0-.25,0-.25-.13s.12-.16.34-.16c.85,0,1.88,0,2.38,0s1.38,0,1.92,0c.21,0,.33,0,.33.16s-.1.13-.21.13a2.54,2.54,0,0,0-.44,0c-.44.08-.61.36-.62.93s0,1.15,0,2Z"/><path class="cls-4" d="M176.07,82c0-2.18,0-2.58,0-3s-.14-.72-.62-.82a3,3,0,0,0-.56,0c-.16,0-.24,0-.24-.13s.1-.13.32-.13c.76,0,1.66,0,2.06,0s1.35,0,2.21,0c1.79,0,4.18,0,5.75,1.63a5.12,5.12,0,0,1,1.39,3.64,5.7,5.7,0,0,1-1.56,4,6.54,6.54,0,0,1-4.8,1.69c-.52,0-1.1,0-1.65-.09s-1-.09-1.4-.09h-.82l-1,0c-.19,0-.29,0-.29-.14s.06-.11.23-.11a2.3,2.3,0,0,0,.52-.06c.29-.06.36-.37.42-.79.07-.6.07-1.73.07-3.05Zm1.79,1.58c0,1.52,0,2.62,0,2.89a3.13,3.13,0,0,0,.16,1.09c.19.27.75.57,1.88.57a4.6,4.6,0,0,0,3.29-1,4.52,4.52,0,0,0,1.2-3.57,4.87,4.87,0,0,0-1.38-3.58A5.68,5.68,0,0,0,179,78.48a3.86,3.86,0,0,0-.93.1.26.26,0,0,0-.17.29c0,.49,0,1.73,0,2.87Z"/><path class="cls-4" d="M188.77,82c0-2.18,0-2.58,0-3s-.14-.72-.62-.82a3,3,0,0,0-.56,0c-.16,0-.24,0-.24-.13s.1-.13.32-.13c.76,0,1.66,0,2.06,0s1.35,0,2.21,0c1.79,0,4.18,0,5.75,1.63A5.12,5.12,0,0,1,199,83.08a5.7,5.7,0,0,1-1.56,4,6.54,6.54,0,0,1-4.8,1.69c-.52,0-1.1,0-1.65-.09s-1-.09-1.4-.09h-.82l-1,0c-.19,0-.29,0-.29-.14s.06-.11.23-.11a2.3,2.3,0,0,0,.52-.06c.29-.06.36-.37.42-.79.07-.6.07-1.73.07-3.05Zm1.79,1.58c0,1.52,0,2.62,0,2.89a3.13,3.13,0,0,0,.16,1.09c.19.27.75.57,1.88.57a4.6,4.6,0,0,0,3.29-1,4.52,4.52,0,0,0,1.2-3.57,4.87,4.87,0,0,0-1.38-3.58,5.68,5.68,0,0,0-4.07-1.43,3.86,3.86,0,0,0-.93.1.26.26,0,0,0-.17.29c0,.49,0,1.73,0,2.87Z"/><path class="cls-4" d="M200.82,88.47c-.23-.1-.27-.17-.27-.49,0-.79.06-1.65.07-1.88s.06-.37.17-.37.14.13.14.24a3,3,0,0,0,.13.73,2,2,0,0,0,2,1.45A1.74,1.74,0,0,0,205,86.52c0-.7-.21-1.36-1.4-2.29l-.66-.52c-1.58-1.23-2.12-2.24-2.12-3.4,0-1.58,1.32-2.71,3.31-2.71a6.93,6.93,0,0,1,1.91.24c.13,0,.2.07.2.17s-.06.6-.06,1.72c0,.32,0,.43-.16.43s-.14-.09-.14-.26a1.74,1.74,0,0,0-.37-.95,1.81,1.81,0,0,0-1.56-.7,1.51,1.51,0,0,0-1.71,1.48c0,.66.33,1.16,1.52,2.06l.4.3c1.73,1.3,2.35,2.29,2.35,3.65a2.89,2.89,0,0,1-1.35,2.49,4.14,4.14,0,0,1-2.28.59A5,5,0,0,1,200.82,88.47Z"/><path class="cls-4" d="M214.25,82c0-2.18,0-2.58,0-3s-.14-.72-.62-.82a3,3,0,0,0-.56,0c-.16,0-.24,0-.24-.13s.1-.13.32-.13c.76,0,1.66,0,2.06,0,.59,0,1.42,0,2.08,0a3.49,3.49,0,0,1,2.67.82,2.49,2.49,0,0,1,.72,1.71,3.37,3.37,0,0,1-3.52,3.47,2.08,2.08,0,0,1-.3,0c-.07,0-.17,0-.17-.13s.1-.16.4-.16A2.26,2.26,0,0,0,219,81.13a2.76,2.76,0,0,0-.84-2.15,2.13,2.13,0,0,0-1.43-.56,2,2,0,0,0-.56.06c-.07,0-.11.11-.11.27v5.73c0,1.32,0,2.45.07,3.07,0,.4.13.72.56.77a5.93,5.93,0,0,0,.73.06c.16,0,.23,0,.23.11s-.11.14-.27.14c-.95,0-1.85,0-2.22,0s-1.23,0-1.8,0c-.19,0-.29,0-.29-.14s.06-.11.23-.11a2.3,2.3,0,0,0,.52-.06c.29-.06.36-.37.42-.79.07-.6.07-1.73.07-3.05Z"/><path class="cls-4" d="M222.63,84.9c-.07,0-.1,0-.13.11l-.77,2a2.77,2.77,0,0,0-.21.87c0,.26.13.44.57.44h.21c.17,0,.21,0,.21.11s-.09.14-.24.14c-.46,0-1.07,0-1.52,0-.16,0-.95,0-1.69,0-.19,0-.27,0-.27-.14s.06-.11.17-.11l.44,0c.66-.09.93-.57,1.22-1.29l3.6-9c.17-.42.26-.57.4-.57s.22.13.36.46c.34.79,2.64,6.63,3.55,8.81.54,1.29,1,1.49,1.26,1.56a3.14,3.14,0,0,0,.6.06c.12,0,.19,0,.19.11s-.13.14-.66.14-1.56,0-2.71,0c-.26,0-.43,0-.43-.12s.06-.11.2-.13a.23.23,0,0,0,.13-.33L226,85a.14.14,0,0,0-.14-.1Zm2.92-.72c.07,0,.09,0,.07-.09l-1.29-3.54c0-.06,0-.13-.07-.13s-.07.07-.09.13l-1.32,3.52c0,.06,0,.1.06.1Z"/></svg>